<svg width="20" height="20" viewBox="0 0 20 20" fill="none" xmlns="http://www.w3.org/2000/svg">
<g clip-path="url(#clip0_3009_3839)">
<path fill-rule="evenodd" clip-rule="evenodd" d="M0.225964 5.22596C0.297411 5.15434 0.382286 5.09751 0.475729 5.05873C0.569172 5.01996 0.669347 5 0.770516 5C0.871684 5 0.971859 5.01996 1.0653 5.05873C1.15875 5.09751 1.24362 5.15434 1.31507 5.22596L10.0002 13.9126L18.6853 5.22596C18.7568 5.15445 18.8417 5.09773 18.9352 5.05902C19.0286 5.02032 19.1288 5.0004 19.2299 5.0004C19.331 5.0004 19.4312 5.02032 19.5246 5.05902C19.618 5.09773 19.7029 5.15445 19.7744 5.22596C19.846 5.29748 19.9027 5.38237 19.9414 5.47581C19.9801 5.56924 20 5.66938 20 5.77052C20 5.87165 19.9801 5.97179 19.9414 6.06522C19.9027 6.15866 19.846 6.24356 19.7744 6.31507L10.5448 15.5448C10.4733 15.6164 10.3884 15.6732 10.295 15.712C10.2015 15.7508 10.1014 15.7707 10.0002 15.7707C9.89903 15.7707 9.79886 15.7508 9.70542 15.712C9.61197 15.6732 9.5271 15.6164 9.45565 15.5448L0.225964 6.31507C0.154337 6.24362 0.0975082 6.15874 0.0587336 6.0653C0.019959 5.97186 0 5.87168 0 5.77052C0 5.66935 0.019959 5.56917 0.0587336 5.47573C0.0975082 5.38229 0.154337 5.29741 0.225964 5.22596Z" fill="#FFA800"/>
</g>
<defs>
<clipPath id="clip0_3009_3839">
<rect width="20" height="20" fill="white" transform="translate(20 20) rotate(180)"/>
</clipPath>
</defs>
</svg>
