<svg width="56" height="61" viewBox="0 0 56 61" fill="none" xmlns="http://www.w3.org/2000/svg">
<rect y="0.5" width="56" height="60" rx="16" fill="#6FBD4B"/>
<g clip-path="url(#clip0_2250_24336)">
<g clip-path="url(#clip1_2250_24336)">
<path d="M35.632 21.7601C33.913 20.1801 31.825 19.3201 29.665 19.3201H25.633C23.851 19.3201 22.114 19.9901 20.674 21.2601C16.408 25.0401 8.425 33.8301 13.357 43.4701C15.634 47.9201 19.774 50.5001 24.112 50.5001H31.654C35.992 50.5001 40.123 47.9301 42.409 43.4701C47.143 34.2301 39.997 25.7701 35.641 21.7601H35.632ZM27.055 35.0401H28.711C30.547 35.0401 32.041 36.7001 32.041 38.7401C32.041 40.7801 30.547 42.4401 28.711 42.4401H28.477V44.6001H27.28V42.4401H27.055C25.219 42.4401 23.725 40.7801 23.725 38.7401H24.922C24.922 40.0401 25.876 41.1001 27.046 41.1001H28.702C29.872 41.1001 30.826 40.0401 30.826 38.7401C30.826 37.4401 29.872 36.3801 28.702 36.3801H27.046C25.21 36.3801 23.716 34.7201 23.716 32.6801C23.716 30.6401 25.21 28.9801 27.046 28.9801H27.271V26.8201H28.468V28.9801H28.702C30.538 28.9801 32.032 30.6401 32.032 32.6801H30.835C30.835 31.3801 29.881 30.3201 28.711 30.3201H27.055C25.885 30.3201 24.931 31.3801 24.931 32.6801C24.931 33.9801 25.885 35.0401 27.055 35.0401Z" fill="white"/>
<path d="M21.7811 16.9299C22.0961 17.3899 22.5821 17.6599 23.0951 17.6599H32.6531C33.1751 17.6599 33.6611 17.3899 33.9671 16.9299L36.3161 13.4499C37.1981 12.1399 36.1811 10.1899 34.7411 10.5499C34.4441 10.6299 34.1471 10.7899 33.8861 11.0799C32.8871 12.1599 30.9161 11.6699 30.2861 11.4699C30.1601 11.4299 30.0431 11.3699 29.9351 11.2999C29.0351 10.7499 27.8741 10.7499 27.8741 10.7499C27.8741 10.7499 26.7131 10.7499 25.8131 11.2999C25.6961 11.3699 25.5881 11.4299 25.4621 11.4699C24.8411 11.6599 22.8611 12.1599 21.8621 11.0799C21.6011 10.7899 21.3041 10.6299 21.0071 10.5499C19.5671 10.1899 18.5501 12.1399 19.4321 13.4499L21.7811 16.9299Z" fill="white"/>
</g>
</g>
<defs>
<clipPath id="clip0_2250_24336">
<rect width="36" height="40" fill="white" transform="translate(10 10.5)"/>
</clipPath>
<clipPath id="clip1_2250_24336">
<rect width="32.166" height="40" fill="white" transform="translate(11.8 10.5)"/>
</clipPath>
</defs>
</svg>
