<svg width="44" height="83" viewBox="0 0 44 83" fill="none" xmlns="http://www.w3.org/2000/svg">
<rect opacity="0.2" y="0.792969" width="44" height="82" rx="22" fill="#9D8160"/>
<rect x="3" y="3.79297" width="38" height="38" rx="19" fill="#D9CAB8"/>
<path d="M22 27.293C23.1935 27.293 24.3381 26.8189 25.182 25.9749C26.0259 25.131 26.5 23.9864 26.5 22.793C26.5 21.5995 26.0259 20.4549 25.182 19.611C24.3381 18.7671 23.1935 18.293 22 18.293C20.8065 18.293 19.6619 18.7671 18.818 19.611C17.9741 20.4549 17.5 21.5995 17.5 22.793C17.5 23.9864 17.9741 25.131 18.818 25.9749C19.6619 26.8189 20.8065 27.293 22 27.293ZM22 13.793C22.1492 13.793 22.2923 13.8522 22.3977 13.9577C22.5032 14.0632 22.5625 14.2063 22.5625 14.3555V16.6055C22.5625 16.7547 22.5032 16.8977 22.3977 17.0032C22.2923 17.1087 22.1492 17.168 22 17.168C21.8508 17.168 21.7077 17.1087 21.6023 17.0032C21.4968 16.8977 21.4375 16.7547 21.4375 16.6055V14.3555C21.4375 14.2063 21.4968 14.0632 21.6023 13.9577C21.7077 13.8522 21.8508 13.793 22 13.793ZM22 28.418C22.1492 28.418 22.2923 28.4772 22.3977 28.5827C22.5032 28.6882 22.5625 28.8313 22.5625 28.9805V31.2305C22.5625 31.3797 22.5032 31.5227 22.3977 31.6282C22.2923 31.7337 22.1492 31.793 22 31.793C21.8508 31.793 21.7077 31.7337 21.6023 31.6282C21.4968 31.5227 21.4375 31.3797 21.4375 31.2305V28.9805C21.4375 28.8313 21.4968 28.6882 21.6023 28.5827C21.7077 28.4772 21.8508 28.418 22 28.418ZM31 22.793C31 22.9422 30.9407 23.0852 30.8352 23.1907C30.7298 23.2962 30.5867 23.3555 30.4375 23.3555H28.1875C28.0383 23.3555 27.8952 23.2962 27.7898 23.1907C27.6843 23.0852 27.625 22.9422 27.625 22.793C27.625 22.6438 27.6843 22.5007 27.7898 22.3952C27.8952 22.2897 28.0383 22.2305 28.1875 22.2305H30.4375C30.5867 22.2305 30.7298 22.2897 30.8352 22.3952C30.9407 22.5007 31 22.6438 31 22.793ZM16.375 22.793C16.375 22.9422 16.3157 23.0852 16.2102 23.1907C16.1048 23.2962 15.9617 23.3555 15.8125 23.3555H13.5625C13.4133 23.3555 13.2702 23.2962 13.1648 23.1907C13.0593 23.0852 13 22.9422 13 22.793C13 22.6438 13.0593 22.5007 13.1648 22.3952C13.2702 22.2897 13.4133 22.2305 13.5625 22.2305H15.8125C15.9617 22.2305 16.1048 22.2897 16.2102 22.3952C16.3157 22.5007 16.375 22.6438 16.375 22.793ZM28.3641 16.4288C28.4696 16.5343 28.5288 16.6774 28.5288 16.8265C28.5288 16.9757 28.4696 17.1187 28.3641 17.2242L26.7734 18.8161C26.7211 18.8683 26.659 18.9097 26.5907 18.938C26.5224 18.9662 26.4492 18.9807 26.3753 18.9807C26.226 18.9806 26.0829 18.9212 25.9774 18.8155C25.9252 18.7632 25.8838 18.7012 25.8556 18.6329C25.8273 18.5646 25.8128 18.4914 25.8129 18.4174C25.813 18.2682 25.8724 18.1251 25.978 18.0196L27.5687 16.4288C27.6742 16.3234 27.8173 16.2642 27.9664 16.2642C28.1156 16.2642 28.2586 16.3234 28.3641 16.4288ZM18.022 26.771C18.1275 26.8765 18.1867 27.0195 18.1867 27.1687C18.1867 27.3178 18.1275 27.4609 18.022 27.5663L16.4312 29.1571C16.3252 29.2596 16.1831 29.3163 16.0356 29.315C15.8881 29.3137 15.747 29.2545 15.6427 29.1502C15.5384 29.0459 15.4793 28.9049 15.478 28.7574C15.4767 28.6099 15.5334 28.4678 15.6359 28.3617L17.2266 26.771C17.3321 26.6655 17.4752 26.6063 17.6243 26.6063C17.7735 26.6063 17.9165 26.6655 18.022 26.771ZM28.3641 29.1571C28.2586 29.2625 28.1156 29.3218 27.9664 29.3218C27.8173 29.3218 27.6742 29.2625 27.5687 29.1571L25.978 27.5663C25.8755 27.4603 25.8188 27.3182 25.8201 27.1707C25.8214 27.0232 25.8806 26.8821 25.9849 26.7778C26.0891 26.6735 26.2302 26.6144 26.3777 26.6131C26.5252 26.6118 26.6673 26.6685 26.7734 26.771L28.3641 28.3617C28.4696 28.4672 28.5288 28.6103 28.5288 28.7594C28.5288 28.9086 28.4696 29.0516 28.3641 29.1571ZM18.022 18.8161C17.9165 18.9215 17.7735 18.9808 17.6243 18.9808C17.4752 18.9808 17.3321 18.9215 17.2266 18.8161L15.6359 17.2242C15.5822 17.1723 15.5393 17.1103 15.5098 17.0416C15.4803 16.973 15.4648 16.8992 15.4642 16.8245C15.4635 16.7498 15.4778 16.6757 15.506 16.6066C15.5343 16.5375 15.5761 16.4747 15.6289 16.4219C15.6817 16.3691 15.7445 16.3273 15.8137 16.299C15.8828 16.2707 15.9568 16.2565 16.0315 16.2571C16.1062 16.2578 16.18 16.2733 16.2487 16.3028C16.3173 16.3323 16.3794 16.3751 16.4312 16.4288L18.022 18.0196C18.0744 18.0718 18.1159 18.1339 18.1443 18.2023C18.1727 18.2706 18.1873 18.3439 18.1873 18.4178C18.1873 18.4918 18.1727 18.5651 18.1443 18.6334C18.1159 18.7018 18.0744 18.7638 18.022 18.8161Z" fill="#273347"/>
<path d="M20.0001 53.0707C20.0975 53.1895 20.1571 53.3346 20.1714 53.4875C20.1856 53.6404 20.1538 53.794 20.0801 53.9287C19.5016 54.9901 19.1997 56.18 19.2021 57.3888C19.2021 61.4098 22.4801 64.6659 26.5202 64.6659C27.0482 64.6652 27.5592 64.6119 28.0532 64.5059C28.2043 64.4736 28.3616 64.4863 28.5056 64.5424C28.6496 64.5986 28.7739 64.6958 28.8632 64.8219C28.9577 64.9532 29.0059 65.1121 29.0003 65.2737C28.9947 65.4353 28.9356 65.5905 28.8322 65.7149C28.0478 66.6783 27.0584 67.4545 25.936 67.987C24.8135 68.5195 23.5865 68.7949 22.3441 68.793C17.7341 68.793 14 65.0789 14 60.5028C14 57.0588 16.114 54.1047 19.1241 52.8527C19.274 52.789 19.4405 52.7758 19.5986 52.8152C19.7566 52.8545 19.8975 52.9442 20.0001 53.0707Z" fill="#837C6F"/>
</svg>
