<svg width="14" height="8" viewBox="0 0 14 8" fill="none" xmlns="http://www.w3.org/2000/svg">
<path fill-rule="evenodd" clip-rule="evenodd" d="M13.3538 7.354C13.3074 7.40056 13.2522 7.43751 13.1915 7.46271C13.1307 7.48792 13.0656 7.50089 12.9998 7.50089C12.9341 7.50089 12.869 7.48792 12.8082 7.46271C12.7475 7.43751 12.6923 7.40056 12.6458 7.354L6.99984 1.707L1.35384 7.354C1.30735 7.40049 1.25216 7.43736 1.19142 7.46252C1.13068 7.48768 1.06558 7.50063 0.999838 7.50063C0.934094 7.50063 0.868995 7.48768 0.808255 7.46252C0.747516 7.43736 0.692326 7.40049 0.645838 7.354C0.59935 7.30751 0.562474 7.25232 0.537315 7.19158C0.512156 7.13084 0.499207 7.06574 0.499207 7C0.499207 6.93426 0.512155 6.86916 0.537315 6.80842C0.562474 6.74768 0.59935 6.69249 0.645838 6.646L6.64584 0.645999C6.69228 0.599436 6.74746 0.562493 6.8082 0.537287C6.86895 0.512081 6.93407 0.499106 6.99984 0.499106C7.06561 0.499106 7.13073 0.512081 7.19147 0.537287C7.25222 0.562493 7.30739 0.599436 7.35384 0.645999L13.3538 6.646C13.4004 6.69244 13.4373 6.74762 13.4626 6.80837C13.4878 6.86911 13.5007 6.93423 13.5007 7C13.5007 7.06577 13.4878 7.13089 13.4626 7.19163C13.4373 7.25238 13.4004 7.30755 13.3538 7.354Z" fill="#FFA800"/>
</svg>
