<svg width="24" height="25" viewBox="0 0 24 25" fill="none" xmlns="http://www.w3.org/2000/svg">
<path d="M12 17.0146C13.1935 17.0146 14.3381 16.5405 15.182 15.6966C16.0259 14.8527 16.5 13.7081 16.5 12.5146C16.5 11.3212 16.0259 10.1766 15.182 9.33267C14.3381 8.48875 13.1935 8.01465 12 8.01465C10.8065 8.01465 9.66193 8.48875 8.81802 9.33267C7.97411 10.1766 7.5 11.3212 7.5 12.5146C7.5 13.7081 7.97411 14.8527 8.81802 15.6966C9.66193 16.5405 10.8065 17.0146 12 17.0146ZM12 3.51465C12.1492 3.51465 12.2923 3.57391 12.3977 3.6794C12.5032 3.78489 12.5625 3.92796 12.5625 4.07715V6.32715C12.5625 6.47633 12.5032 6.61941 12.3977 6.7249C12.2923 6.83039 12.1492 6.88965 12 6.88965C11.8508 6.88965 11.7077 6.83039 11.6023 6.7249C11.4968 6.61941 11.4375 6.47633 11.4375 6.32715V4.07715C11.4375 3.92796 11.4968 3.78489 11.6023 3.6794C11.7077 3.57391 11.8508 3.51465 12 3.51465ZM12 18.1396C12.1492 18.1396 12.2923 18.1989 12.3977 18.3044C12.5032 18.4099 12.5625 18.553 12.5625 18.7021V20.9521C12.5625 21.1013 12.5032 21.2444 12.3977 21.3499C12.2923 21.4554 12.1492 21.5146 12 21.5146C11.8508 21.5146 11.7077 21.4554 11.6023 21.3499C11.4968 21.2444 11.4375 21.1013 11.4375 20.9521V18.7021C11.4375 18.553 11.4968 18.4099 11.6023 18.3044C11.7077 18.1989 11.8508 18.1396 12 18.1396ZM21 12.5146C21 12.6638 20.9407 12.8069 20.8352 12.9124C20.7298 13.0179 20.5867 13.0771 20.4375 13.0771H18.1875C18.0383 13.0771 17.8952 13.0179 17.7898 12.9124C17.6843 12.8069 17.625 12.6638 17.625 12.5146C17.625 12.3655 17.6843 12.2224 17.7898 12.1169C17.8952 12.0114 18.0383 11.9521 18.1875 11.9521H20.4375C20.5867 11.9521 20.7298 12.0114 20.8352 12.1169C20.9407 12.2224 21 12.3655 21 12.5146ZM6.375 12.5146C6.375 12.6638 6.31574 12.8069 6.21025 12.9124C6.10476 13.0179 5.96168 13.0771 5.8125 13.0771H3.5625C3.41332 13.0771 3.27024 13.0179 3.16475 12.9124C3.05926 12.8069 3 12.6638 3 12.5146C3 12.3655 3.05926 12.2224 3.16475 12.1169C3.27024 12.0114 3.41332 11.9521 3.5625 11.9521H5.8125C5.96168 11.9521 6.10476 12.0114 6.21025 12.1169C6.31574 12.2224 6.375 12.3655 6.375 12.5146ZM18.3641 6.15052C18.4696 6.25601 18.5288 6.39906 18.5288 6.54821C18.5288 6.69737 18.4696 6.84041 18.3641 6.9459L16.7734 8.53777C16.7211 8.59 16.659 8.63141 16.5907 8.65965C16.5224 8.68788 16.4492 8.70239 16.3753 8.70234C16.226 8.70223 16.0829 8.64283 15.9774 8.53721C15.9252 8.48491 15.8838 8.42284 15.8556 8.35454C15.8273 8.28623 15.8128 8.21304 15.8129 8.13913C15.813 7.98986 15.8724 7.84675 15.978 7.74127L17.5687 6.15052C17.6742 6.04507 17.8173 5.98583 17.9664 5.98583C18.1156 5.98583 18.2586 6.04507 18.3641 6.15052ZM8.022 16.4926C8.12745 16.5981 8.18669 16.7412 8.18669 16.8903C8.18669 17.0395 8.12745 17.1825 8.022 17.288L6.43125 18.8788C6.32516 18.9812 6.18307 19.0379 6.03559 19.0367C5.8881 19.0354 5.74702 18.9762 5.64273 18.8719C5.53843 18.7676 5.47928 18.6265 5.478 18.4791C5.47671 18.3316 5.53341 18.1895 5.63587 18.0834L7.22662 16.4926C7.33211 16.3872 7.47516 16.328 7.62431 16.328C7.77347 16.328 7.91652 16.3872 8.022 16.4926ZM18.3641 18.8788C18.2586 18.9842 18.1156 19.0435 17.9664 19.0435C17.8173 19.0435 17.6742 18.9842 17.5687 18.8788L15.978 17.288C15.8755 17.1819 15.8188 17.0398 15.8201 16.8924C15.8214 16.7449 15.8806 16.6038 15.9849 16.4995C16.0891 16.3952 16.2302 16.3361 16.3777 16.3348C16.5252 16.3335 16.6673 16.3902 16.7734 16.4926L18.3641 18.0834C18.4696 18.1889 18.5288 18.3319 18.5288 18.4811C18.5288 18.6302 18.4696 18.7733 18.3641 18.8788ZM8.022 8.53777C7.91652 8.64323 7.77347 8.70247 7.62431 8.70247C7.47516 8.70247 7.33211 8.64323 7.22662 8.53777L5.63587 6.9459C5.58215 6.89401 5.5393 6.83194 5.50982 6.76331C5.48034 6.69469 5.46482 6.62087 5.46417 6.54619C5.46352 6.4715 5.47775 6.39743 5.50604 6.3283C5.53432 6.25917 5.57609 6.19637 5.6289 6.14355C5.68172 6.09074 5.74452 6.04897 5.81365 6.02069C5.88278 5.9924 5.95685 5.97817 6.03154 5.97882C6.10623 5.97947 6.18004 5.99499 6.24867 6.02447C6.31729 6.05395 6.37936 6.0968 6.43125 6.15052L8.022 7.74127C8.07438 7.79352 8.11594 7.8556 8.1443 7.92394C8.17266 7.99227 8.18726 8.06554 8.18726 8.13952C8.18726 8.21351 8.17266 8.28677 8.1443 8.35511C8.11594 8.42345 8.07438 8.48552 8.022 8.53777Z" fill="#C1CBDB"/>
</svg>
