<svg width="14" height="8" viewBox="0 0 14 8" fill="none" xmlns="http://www.w3.org/2000/svg">
<path fill-rule="evenodd" clip-rule="evenodd" d="M0.646039 0.646001C0.692485 0.599438 0.747661 0.562495 0.808406 0.537288C0.869151 0.512082 0.934272 0.499107 1.00004 0.499107C1.06581 0.499107 1.13093 0.512082 1.19167 0.537288C1.25242 0.562495 1.30759 0.599438 1.35404 0.646001L7.00004 6.293L12.646 0.646001C12.6925 0.599513 12.7477 0.562637 12.8085 0.537477C12.8692 0.512318 12.9343 0.499369 13 0.499369C13.0658 0.499369 13.1309 0.512318 13.1916 0.537477C13.2524 0.562637 13.3076 0.599513 13.354 0.646001C13.4005 0.692489 13.4374 0.747678 13.4626 0.808417C13.4877 0.869157 13.5007 0.934257 13.5007 1C13.5007 1.06574 13.4877 1.13085 13.4626 1.19158C13.4374 1.25232 13.4005 1.30751 13.354 1.354L7.35404 7.354C7.30759 7.40056 7.25242 7.43751 7.19167 7.46271C7.13093 7.48792 7.06581 7.50089 7.00004 7.50089C6.93427 7.50089 6.86915 7.48792 6.80841 7.46271C6.74766 7.43751 6.69249 7.40056 6.64604 7.354L0.646039 1.354C0.599476 1.30756 0.562533 1.25238 0.537327 1.19163C0.51212 1.13089 0.499146 1.06577 0.499146 1C0.499146 0.934234 0.51212 0.869112 0.537327 0.808367C0.562533 0.747622 0.599476 0.692447 0.646039 0.646001Z" fill="#FFA800"/>
</svg>
