<svg width="44" height="44" viewBox="0 0 44 44" fill="none" xmlns="http://www.w3.org/2000/svg">
<path d="M19 24C19 25.657 21.686 27 25 27C28.314 27 31 25.657 31 24C31 22.343 28.314 21 25 21C21.686 21 19 22.343 19 24Z" stroke="#D9CAB8" stroke-linecap="round" stroke-linejoin="round"/>
<path d="M19 24V28C19 29.656 21.686 31 25 31C28.314 31 31 29.656 31 28V24M13 16C13 17.072 14.144 18.062 16 18.598C17.856 19.134 20.144 19.134 22 18.598C23.856 18.062 25 17.072 25 16C25 14.928 23.856 13.938 22 13.402C20.144 12.866 17.856 12.866 16 13.402C14.144 13.938 13 14.928 13 16Z" stroke="#D9CAB8" stroke-linecap="round" stroke-linejoin="round"/>
<path d="M13 16V26C13 26.888 13.772 27.45 15 28" stroke="#D9CAB8" stroke-linecap="round" stroke-linejoin="round"/>
<path d="M13 21C13 21.888 13.772 22.45 15 23" stroke="#D9CAB8" stroke-linecap="round" stroke-linejoin="round"/>
</svg>
