<svg width="60" height="61" viewBox="0 0 60 61" fill="none" xmlns="http://www.w3.org/2000/svg">
<rect y="0.5" width="60" height="60" rx="16" fill="#C68C1D"/>
<g clip-path="url(#clip0_2250_24371)">
<g clip-path="url(#clip1_2250_24371)">
<path d="M26.58 19.98C27.46 19.74 27.98 18.84 27.75 17.96C27.52 17.08 26.61 16.56 25.73 16.79C24.85 17.02 24.33 17.93 24.56 18.81C24.79 19.69 25.7 20.21 26.58 19.98Z" fill="white"/>
<path d="M25.1201 10.52L23.1201 11.06C21.7401 11.42 15.6501 21.49 16.0201 22.87L22.9101 48.58C23.2801 49.96 24.7101 50.79 26.0901 50.42L42.2301 46.1C43.6101 45.73 44.4401 44.3 44.0701 42.92L37.1801 17.21C36.8101 15.81 26.5001 10.15 25.1201 10.52ZM25.4001 15.55C26.9701 15.13 28.5801 16.06 29.0001 17.63C29.4201 19.2 28.4901 20.81 26.9201 21.23C25.3501 21.65 23.7401 20.72 23.3201 19.15C22.9001 17.58 23.8301 15.97 25.4001 15.55ZM29.4401 33.98L31.1201 33.53C32.9901 33.03 34.9101 34.14 35.4101 36.01C35.9101 37.88 34.8001 39.8 32.9301 40.3L32.7201 40.36L33.2401 42.31L31.9901 42.64L31.4701 40.69L31.2601 40.75C29.3901 41.25 27.4701 40.14 26.9701 38.27L28.2201 37.94C28.5401 39.12 29.7501 39.82 30.9301 39.5L32.6101 39.05C33.7901 38.73 34.4901 37.52 34.1701 36.34C33.8501 35.16 32.6401 34.46 31.4601 34.78L29.7801 35.23C27.9101 35.73 25.9901 34.62 25.4901 32.75C24.9901 30.88 26.1001 28.96 27.9701 28.46L28.1801 28.4L27.6601 26.45L28.9101 26.12L29.4301 28.07L29.6401 28.01C31.5101 27.51 33.4301 28.62 33.9301 30.49L32.6801 30.82C32.3601 29.64 31.1501 28.94 29.9701 29.26L28.2901 29.71C27.1101 30.03 26.4101 31.24 26.7301 32.42C27.0501 33.6 28.2601 34.3 29.4401 33.98Z" fill="white"/>
</g>
</g>
<defs>
<clipPath id="clip0_2250_24371">
<rect width="40" height="40" fill="white" transform="translate(10 10.5)"/>
</clipPath>
<clipPath id="clip1_2250_24371">
<rect width="28.16" height="40" fill="white" transform="translate(16 10.5)"/>
</clipPath>
</defs>
</svg>
