<svg width="44" height="44" viewBox="0 0 44 44" fill="none" xmlns="http://www.w3.org/2000/svg">
<path d="M21.375 13.2725C19.755 13.3886 18.1992 13.9533 16.8819 14.9034C15.5646 15.8535 14.5378 17.1515 13.9163 18.6521C13.2948 20.1527 13.1033 21.7966 13.3631 23.3999C13.623 25.0032 14.3239 26.5025 15.3875 27.73L21.375 21.7413V13.2725ZM22.625 13.2725V21.375H30.7275C30.5771 19.2758 29.6752 17.3011 28.187 15.813C26.6989 14.3248 24.7242 13.4229 22.625 13.2725ZM30.7275 22.625H22.2587L16.2713 28.6125C17.4988 29.6757 18.998 30.3764 20.6011 30.636C22.2041 30.8956 23.8478 30.704 25.3482 30.0826C26.8486 29.4612 28.1464 28.4345 29.0964 27.1174C30.0465 25.8003 30.6112 24.2448 30.7275 22.625ZM12 22C12 19.3478 13.0536 16.8043 14.9289 14.9289C16.8043 13.0536 19.3478 12 22 12C24.6522 12 27.1957 13.0536 29.0711 14.9289C30.9464 16.8043 32 19.3478 32 22C32 24.6522 30.9464 27.1957 29.0711 29.0711C27.1957 30.9464 24.6522 32 22 32C19.3478 32 16.8043 30.9464 14.9289 29.0711C13.0536 27.1957 12 24.6522 12 22Z" fill="#C1CBDB"/>
</svg>
