<svg width="44" height="44" viewBox="0 0 44 44" fill="none" xmlns="http://www.w3.org/2000/svg">
<path d="M18.1678 19.9391C18.1678 20.1892 18.0684 20.4291 17.8916 20.6059C17.7147 20.7828 17.4748 20.8822 17.2247 20.8822C16.9746 20.8822 16.7347 20.7828 16.5578 20.6059C16.3809 20.4291 16.2816 20.1892 16.2816 19.9391C16.2816 19.6889 16.3809 19.449 16.5578 19.2722C16.7347 19.0953 16.9746 18.996 17.2247 18.996C17.4748 18.996 17.7147 19.0953 17.8916 19.2722C18.0684 19.449 18.1678 19.6889 18.1678 19.9391ZM19.5988 18.0579C20.3455 17.8445 21.1184 17.737 21.8949 17.7385C22.7324 17.7385 23.5334 17.8605 24.2753 18.0818C24.4339 18.1255 24.6033 18.1054 24.7471 18.0257C24.891 17.946 24.9979 17.8131 25.045 17.6555C25.092 17.4979 25.0755 17.3282 24.9988 17.1827C24.9222 17.0371 24.7916 16.9275 24.635 16.8771C23.7457 16.6128 22.8227 16.4793 21.8949 16.481C20.972 16.481 20.0829 16.6105 19.2517 16.8482C19.0913 16.8942 18.9558 17.0021 18.8749 17.148C18.794 17.294 18.7744 17.4661 18.8204 17.6266C18.8664 17.787 18.9743 17.9225 19.1203 18.0034C19.2663 18.0843 19.4384 18.1039 19.5988 18.0579Z" fill="#D9CAB8"/>
<path fill-rule="evenodd" clip-rule="evenodd" d="M21.8949 14C18.1514 14 14.8896 16.1427 13.9477 19.1871H13.2561C13.0728 19.1873 12.8917 19.2276 12.7256 19.3051C12.5595 19.3827 12.4123 19.4956 12.2944 19.636C12.1765 19.7764 12.0908 19.9409 12.0432 20.1179C11.9955 20.2949 11.9872 20.4802 12.0187 20.6608L12.3381 22.4968C12.4143 22.9344 12.6424 23.3312 12.9824 23.6171C13.3224 23.9031 13.7524 24.0598 14.1967 24.0598H14.5274C14.9046 24.7049 15.3925 25.2896 15.9672 25.7976L15.0505 28.9124C15.0229 29.0062 15.0176 29.1051 15.035 29.2013C15.0523 29.2975 15.0919 29.3883 15.1505 29.4666C15.209 29.5448 15.2851 29.6083 15.3725 29.652C15.4599 29.6957 15.5563 29.7185 15.6541 29.7184H18.169C18.2988 29.7184 18.4253 29.6783 18.5314 29.6036C18.6374 29.5288 18.7177 29.4231 18.7613 29.3009L19.3674 27.6021C20.1659 27.8196 21.0147 27.9378 21.8962 27.9378C22.7852 27.9378 23.6416 27.8184 24.4464 27.5958L25.1292 29.3211C25.1756 29.4383 25.2561 29.5388 25.3604 29.6097C25.4647 29.6806 25.5878 29.7184 25.7139 29.7184H28.2288C28.3269 29.7183 28.4237 29.6953 28.5113 29.6511C28.5989 29.6069 28.6749 29.5429 28.7333 29.464C28.7917 29.3852 28.8309 29.2938 28.8477 29.1972C28.8644 29.1005 28.8584 29.0012 28.8299 28.9074L27.873 25.7561C29.2461 24.5225 30.1138 22.8426 30.1138 20.9689C30.1138 20.7862 30.1054 20.6055 30.0886 20.4269C30.4168 20.2886 30.7274 20.0925 30.9752 19.8686C31.3713 20.2534 32 20.2534 32 19.3443C32 19.6247 31.3713 19.6247 31.4203 19.3116C31.4724 19.2103 31.5104 19.1024 31.5335 18.9909C31.563 18.8453 31.5553 18.6945 31.5108 18.5527C31.4664 18.4109 31.3868 18.2826 31.2795 18.1798C31.1662 18.0631 31.0172 17.9876 30.8562 17.9653C30.6951 17.943 30.5311 17.9751 30.3904 18.0566C30.2614 18.1285 30.1513 18.2301 30.0693 18.353C29.9873 18.4759 29.9357 18.6165 29.9189 18.7633C29.8887 19.0689 30.022 19.3669 30.3213 19.5857C30.2177 19.6579 30.1088 19.7222 29.9956 19.7781C29.3241 16.4282 25.866 14 21.8949 14ZM15.0442 19.9516C15.6164 17.3537 18.3979 15.2575 21.8949 15.2575C25.851 15.2575 28.8563 17.9158 28.8563 20.9689C28.8563 22.5458 28.0717 23.9994 26.7563 25.0532C26.6586 25.1318 26.5866 25.2379 26.5496 25.3578C26.5126 25.4777 26.5124 25.6059 26.5489 25.7259L27.3788 28.4609H26.1402L25.3983 26.5911C25.3385 26.4404 25.2229 26.3186 25.0755 26.2511C24.9282 26.1837 24.7604 26.1757 24.6073 26.2289C23.7761 26.5182 22.8594 26.6804 21.8949 26.6804C20.972 26.6818 20.0553 26.5292 19.1826 26.2289C19.026 26.1745 18.8542 26.1841 18.7046 26.2557C18.5551 26.3273 18.4399 26.4551 18.3841 26.6112L17.7239 28.4609H16.4928L17.2888 25.7574C17.3243 25.6369 17.3229 25.5086 17.2848 25.3889C17.2467 25.2692 17.1737 25.1637 17.075 25.0859C16.4023 24.5651 15.8513 23.9038 15.4604 23.1481C15.4081 23.0442 15.328 22.9569 15.229 22.8959C15.1299 22.8348 15.0159 22.8024 14.8996 22.8023H14.1954C14.0475 22.8022 13.9045 22.7499 13.7913 22.6547C13.6782 22.5594 13.6022 22.4274 13.5768 22.2817L13.2574 20.4458H14.4306C14.5739 20.4457 14.7128 20.3966 14.8244 20.3068C14.936 20.2169 15.0136 20.0916 15.0442 19.9516ZM30.9148 18.874C30.8913 18.9692 30.8494 19.0589 30.7916 19.138L30.7362 19.1066C30.5526 18.9934 30.5388 18.8865 30.5451 18.8262C30.5517 18.7812 30.5683 18.7382 30.5938 18.7006C30.6192 18.6629 30.6529 18.6315 30.6922 18.6086C30.7538 18.5747 30.7928 18.5822 30.8343 18.6237C30.8695 18.654 30.8957 18.6933 30.9099 18.7375C30.9241 18.7817 30.9258 18.8289 30.9148 18.874Z" fill="#D9CAB8"/>
</svg>
