<svg width="16" height="16" viewBox="0 0 16 16" fill="none" xmlns="http://www.w3.org/2000/svg">
<rect width="16" height="16" transform="matrix(-1 0 0 -1 16 16)" fill="#273347"/>
<path fill-rule="evenodd" clip-rule="evenodd" d="M14.3541 11.3541C14.3076 11.4006 14.2525 11.4376 14.1917 11.4628C14.131 11.488 14.0659 11.501 14.0001 11.501C13.9343 11.501 13.8692 11.488 13.8084 11.4628C13.7477 11.4376 13.6925 11.4006 13.6461 11.3541L8.00008 5.70708L2.35408 11.3541C2.30759 11.4006 2.25241 11.4374 2.19167 11.4626C2.13093 11.4878 2.06583 11.5007 2.00008 11.5007C1.93434 11.5007 1.86924 11.4878 1.8085 11.4626C1.74776 11.4374 1.69257 11.4006 1.64608 11.3541C1.59959 11.3076 1.56272 11.2524 1.53756 11.1917C1.5124 11.1309 1.49945 11.0658 1.49945 11.0001C1.49945 10.9343 1.5124 10.8692 1.53756 10.8085C1.56272 10.7478 1.59959 10.6926 1.64608 10.6461L7.64608 4.64608C7.69253 4.59952 7.7477 4.56258 7.80845 4.53737C7.86919 4.51216 7.93432 4.49919 8.00008 4.49919C8.06585 4.49919 8.13097 4.51216 8.19172 4.53737C8.25246 4.56258 8.30764 4.59952 8.35408 4.64608L14.3541 10.6461C14.4006 10.6925 14.4376 10.7477 14.4628 10.8084C14.488 10.8692 14.501 10.9343 14.501 11.0001C14.501 11.0659 14.488 11.131 14.4628 11.1917C14.4376 11.2525 14.4006 11.3076 14.3541 11.3541Z" fill="white"/>
</svg>
