<svg width="24" height="24" viewBox="0 0 24 24" fill="none" xmlns="http://www.w3.org/2000/svg">
<g clip-path="url(#clip0_3062_19949)">
<path d="M2 4.5C2 3.83696 2.26339 3.20107 2.73223 2.73223C3.20107 2.26339 3.83696 2 4.5 2H19.5C20.163 2 20.7989 2.26339 21.2678 2.73223C21.7366 3.20107 22 3.83696 22 4.5V19.5C22 20.163 21.7366 20.7989 21.2678 21.2678C20.7989 21.7366 20.163 22 19.5 22H4.5C3.83696 22 3.20107 21.7366 2.73223 21.2678C2.26339 20.7989 2 20.163 2 19.5V4.5ZM20.75 7H15.75V10.75H20.75V7ZM20.75 12H15.75V15.75H20.75V12ZM20.75 17H15.75V20.75H19.5C19.8315 20.75 20.1495 20.6183 20.3839 20.3839C20.6183 20.1495 20.75 19.8315 20.75 19.5V17ZM14.5 20.75V17H9.5V20.75H14.5ZM8.25 20.75V17H3.25V19.5C3.25 19.8315 3.3817 20.1495 3.61612 20.3839C3.85054 20.6183 4.16848 20.75 4.5 20.75H8.25ZM3.25 15.75H8.25V12H3.25V15.75ZM3.25 10.75H8.25V7H3.25V10.75ZM9.5 7V10.75H14.5V7H9.5ZM14.5 12H9.5V15.75H14.5V12Z" fill="#C1CBDB"/>
</g>
<defs>
<clipPath id="clip0_3062_19949">
<rect width="20" height="20" fill="white" transform="translate(2 2)"/>
</clipPath>
</defs>
</svg>
