<svg width="252" height="250" viewBox="0 0 252 250" fill="none" xmlns="http://www.w3.org/2000/svg">
<g filter="url(#filter0_bd_2009_9408)">
<rect x="16" y="10" width="220" height="220" rx="60" fill="url(#paint0_linear_2009_9408)" shape-rendering="crispEdges"/>
<rect x="16.5" y="10.5" width="219" height="219" rx="59.5" stroke="white" stroke-opacity="0.8" shape-rendering="crispEdges"/>
</g>
<g filter="url(#filter1_d_2009_9408)">
<path d="M158.825 70.48C168.665 70.48 176.405 73.66 182.045 80.02C187.445 86.02 190.145 94 190.145 103.96C190.145 113.56 187.595 121.36 182.495 127.36C185.435 131.14 187.805 134.38 189.605 137.08L182.765 143.02C179.825 138.76 177.455 135.46 175.655 133.12C170.855 135.88 165.245 137.26 158.825 137.26C148.985 137.26 141.245 134.08 135.605 127.72C130.265 121.66 127.595 113.74 127.595 103.96C127.595 94.12 130.265 86.17 135.605 80.11C141.125 73.69 148.865 70.48 158.825 70.48ZM158.825 79.75C152.225 79.75 147.065 82 143.345 86.5C139.865 90.76 138.125 96.58 138.125 103.96C138.125 111.28 139.865 117.07 143.345 121.33C146.945 125.77 152.105 127.99 158.825 127.99C162.965 127.99 166.595 127.12 169.715 125.38C166.475 121.42 163.385 117.88 160.445 114.76L166.565 108.82C169.745 112.18 172.865 115.66 175.925 119.26C178.325 115.18 179.525 110.08 179.525 103.96C179.525 96.46 177.755 90.52 174.215 86.14C170.675 81.88 165.545 79.75 158.825 79.75Z" fill="black"/>
<path d="M65.5197 71.74H89.0097C99.3897 71.74 107.28 74.62 112.68 80.38C117.84 85.84 120.42 93.67 120.42 103.87C120.42 114.01 117.84 121.84 112.68 127.36C107.28 133.12 99.3897 136 89.0097 136H65.5197V71.74ZM76.0497 80.74V127H87.0297C95.0097 127 100.86 125.14 104.58 121.42C108.18 117.64 109.98 111.79 109.98 103.87C109.98 95.71 108.18 89.83 104.58 86.23C100.92 82.57 95.0697 80.74 87.0297 80.74H76.0497Z" fill="black"/>
<path d="M206.004 103.24C209.124 103.24 211.689 104.14 213.699 105.94C215.679 107.74 216.669 110.065 216.669 112.915C216.669 115.645 215.619 118.18 213.519 120.52C212.349 121.78 210.129 123.505 206.859 125.695C203.589 127.855 201.594 129.745 200.874 131.365H216.714V136H194.304C194.304 132.7 195.369 129.85 197.499 127.45C198.669 126.1 201.129 124.135 204.879 121.555C206.829 120.205 208.299 119.005 209.289 117.955C210.699 116.365 211.404 114.67 211.404 112.87C211.404 111.13 210.939 109.825 210.009 108.955C209.079 108.115 207.684 107.695 205.824 107.695C203.844 107.695 202.359 108.37 201.369 109.72C200.379 110.98 199.839 112.885 199.749 115.435H194.484C194.544 111.835 195.594 108.94 197.634 106.75C199.764 104.41 202.554 103.24 206.004 103.24Z" fill="#FF7A00"/>
<path d="M195.233 160.07C197.733 160.07 199.613 160.91 200.873 162.59C202.013 164.09 202.613 166.2 202.673 168.92H190.433C190.553 170.68 191.023 172.03 191.843 172.97C192.683 173.93 193.843 174.41 195.323 174.41C196.583 174.41 197.613 174.09 198.413 173.45C199.053 172.93 199.573 172.12 199.973 171.02H202.373C202.013 172.5 201.313 173.72 200.273 174.68C198.953 175.84 197.303 176.42 195.323 176.42C193.103 176.42 191.323 175.69 189.983 174.23C188.623 172.75 187.943 170.75 187.943 168.23C187.943 165.91 188.593 164 189.893 162.5C191.213 160.88 192.993 160.07 195.233 160.07ZM195.293 162.08C193.913 162.08 192.803 162.53 191.963 163.43C191.143 164.31 190.653 165.52 190.493 167.06H200.183C199.883 163.74 198.253 162.08 195.293 162.08Z" fill="black"/>
<path d="M182.319 160.49H186.159V162.5H182.319V172.37C182.319 172.97 182.429 173.38 182.649 173.6C182.869 173.86 183.249 173.99 183.789 173.99H185.769V176H183.429C182.149 176 181.239 175.67 180.699 175.01C180.199 174.43 179.949 173.55 179.949 172.37V162.5H176.829V160.49H179.949V156.47L182.319 155.48V160.49Z" fill="black"/>
<path d="M167.531 160.07C169.871 160.07 171.721 160.87 173.081 162.47C174.401 163.99 175.061 165.92 175.061 168.26C175.061 170.56 174.411 172.47 173.111 173.99C171.711 175.61 169.851 176.42 167.531 176.42C165.211 176.42 163.361 175.61 161.981 173.99C160.661 172.49 160.001 170.58 160.001 168.26C160.001 165.92 160.661 163.99 161.981 162.47C163.341 160.87 165.191 160.07 167.531 160.07ZM167.531 162.08C165.871 162.08 164.591 162.71 163.691 163.97C162.871 165.09 162.461 166.52 162.461 168.26C162.461 169.98 162.871 171.4 163.691 172.52C164.591 173.78 165.871 174.41 167.531 174.41C169.151 174.41 170.441 173.78 171.401 172.52C172.221 171.36 172.631 169.94 172.631 168.26C172.631 166.56 172.221 165.13 171.401 163.97C170.441 162.71 169.151 162.08 167.531 162.08Z" fill="black"/>
<path d="M143.814 160.49H146.214V169.97C146.214 171.47 146.524 172.57 147.144 173.27C147.784 174.01 148.804 174.38 150.204 174.38C151.204 174.38 152.124 173.98 152.964 173.18C153.804 172.34 154.314 171.26 154.494 169.94V160.49H156.894V176H154.494V173.6C153.214 175.48 151.534 176.42 149.454 176.42C145.694 176.42 143.814 174.31 143.814 170.09V160.49Z" fill="black"/>
<path d="M130.476 154.16C133.696 154.16 136.226 155.23 138.066 157.37C139.826 159.43 140.706 162.08 140.706 165.32C140.706 168.52 139.826 171.15 138.066 173.21C137.986 173.29 137.936 173.35 137.916 173.39C138.596 174.27 139.416 175.4 140.376 176.78L138.756 178.19C137.776 176.79 136.956 175.65 136.296 174.77C134.656 175.87 132.706 176.42 130.446 176.42C127.246 176.42 124.716 175.35 122.856 173.21C121.096 171.19 120.216 168.56 120.216 165.32C120.216 162.06 121.096 159.42 122.856 157.4C124.716 155.24 127.256 154.16 130.476 154.16ZM130.476 156.35C127.996 156.35 126.056 157.2 124.656 158.9C123.336 160.52 122.676 162.66 122.676 165.32C122.676 167.96 123.336 170.09 124.656 171.71C126.036 173.39 127.966 174.23 130.446 174.23C132.226 174.23 133.716 173.81 134.916 172.97C133.676 171.39 132.476 169.99 131.316 168.77L132.786 167.36C134.166 168.84 135.386 170.23 136.446 171.53C137.646 169.93 138.246 167.86 138.246 165.32C138.246 162.62 137.576 160.45 136.236 158.81C134.856 157.17 132.936 156.35 130.476 156.35Z" fill="black"/>
<path d="M110.808 160.07C113.008 160.07 114.648 160.65 115.728 161.81C116.648 162.85 117.108 164.26 117.108 166.04V176H114.858V173.39C114.278 174.21 113.488 174.9 112.488 175.46C111.328 176.1 110.038 176.42 108.618 176.42C107.078 176.42 105.838 176.03 104.898 175.25C103.938 174.43 103.458 173.39 103.458 172.13C103.458 170.35 104.168 169.02 105.588 168.14C106.868 167.28 108.668 166.84 110.988 166.82L114.708 166.76V165.95C114.708 163.35 113.358 162.05 110.658 162.05C109.498 162.05 108.568 162.28 107.868 162.74C107.068 163.22 106.548 163.96 106.308 164.96L103.938 164.78C104.278 163.14 105.078 161.93 106.338 161.15C107.478 160.43 108.968 160.07 110.808 160.07ZM114.708 168.56L111.138 168.62C107.658 168.68 105.918 169.83 105.918 172.07C105.918 172.79 106.208 173.38 106.788 173.84C107.408 174.3 108.188 174.53 109.128 174.53C110.588 174.53 111.888 174.05 113.028 173.09C114.148 172.15 114.708 171.08 114.708 169.88V168.56Z" fill="black"/>
<path d="M94.5604 160.07C98.4204 160.07 100.35 162.2 100.35 166.46V176H97.9504V166.64C97.9504 163.62 96.5904 162.11 93.8704 162.11C92.7904 162.11 91.8604 162.5 91.0804 163.28C90.2604 164.1 89.8004 165.22 89.7004 166.64V176H87.3004V160.49H89.7004V162.77C90.2404 161.89 90.9304 161.23 91.7704 160.79C92.6104 160.31 93.5404 160.07 94.5604 160.07Z" fill="black"/>
<path d="M73.3176 160.49L78.0576 172.73L82.6476 160.49H85.2876L76.7976 181.94H74.1876L76.8576 175.64L70.7076 160.49H73.3176Z" fill="black"/>
<path d="M51.5359 154.58H59.216C62.616 154.58 65.176 155.56 66.896 157.52C68.496 159.34 69.296 161.93 69.296 165.29C69.296 168.59 68.436 171.18 66.716 173.06C64.916 175.02 62.336 176 58.976 176H51.5359V154.58ZM53.9959 156.71V173.87H58.556C61.3359 173.87 63.436 173.13 64.856 171.65C66.196 170.19 66.8659 168.07 66.8659 165.29C66.8659 162.43 66.246 160.3 65.006 158.9C63.686 157.44 61.6259 156.71 58.826 156.71H53.9959Z" fill="black"/>
</g>
<defs>
<filter id="filter0_bd_2009_9408" x="0" y="-2" width="252" height="252" filterUnits="userSpaceOnUse" color-interpolation-filters="sRGB">
<feFlood flood-opacity="0" result="BackgroundImageFix"/>
<feGaussianBlur in="BackgroundImageFix" stdDeviation="5"/>
<feComposite in2="SourceAlpha" operator="in" result="effect1_backgroundBlur_2009_9408"/>
<feColorMatrix in="SourceAlpha" type="matrix" values="0 0 0 0 0 0 0 0 0 0 0 0 0 0 0 0 0 0 127 0" result="hardAlpha"/>
<feOffset dy="4"/>
<feGaussianBlur stdDeviation="8"/>
<feComposite in2="hardAlpha" operator="out"/>
<feColorMatrix type="matrix" values="0 0 0 0 0 0 0 0 0 0 0 0 0 0 0 0 0 0 0.5 0"/>
<feBlend mode="normal" in2="effect1_backgroundBlur_2009_9408" result="effect2_dropShadow_2009_9408"/>
<feBlend mode="normal" in="SourceGraphic" in2="effect2_dropShadow_2009_9408" result="shape"/>
</filter>
<filter id="filter1_d_2009_9408" x="47.5359" y="70.48" width="173.178" height="119.46" filterUnits="userSpaceOnUse" color-interpolation-filters="sRGB">
<feFlood flood-opacity="0" result="BackgroundImageFix"/>
<feColorMatrix in="SourceAlpha" type="matrix" values="0 0 0 0 0 0 0 0 0 0 0 0 0 0 0 0 0 0 127 0" result="hardAlpha"/>
<feOffset dy="4"/>
<feGaussianBlur stdDeviation="2"/>
<feComposite in2="hardAlpha" operator="out"/>
<feColorMatrix type="matrix" values="0 0 0 0 0 0 0 0 0 0 0 0 0 0 0 0 0 0 0.25 0"/>
<feBlend mode="normal" in2="BackgroundImageFix" result="effect1_dropShadow_2009_9408"/>
<feBlend mode="normal" in="SourceGraphic" in2="effect1_dropShadow_2009_9408" result="shape"/>
</filter>
<linearGradient id="paint0_linear_2009_9408" x1="16" y1="10" x2="252.787" y2="29.8603" gradientUnits="userSpaceOnUse">
<stop stop-color="white"/>
<stop offset="1" stop-color="white" stop-opacity="0.4"/>
</linearGradient>
</defs>
</svg>
