<svg width="160" height="17" viewBox="0 0 160 17" fill="none" xmlns="http://www.w3.org/2000/svg">
<g clip-path="url(#clip0_2814_16536)">
<path d="M5.6948 16.3644C3.27288 16.3644 1.53462 15.7971 0 14.2406L1.62916 12.6406C2.80013 13.8115 4.08746 14.1752 5.74572 14.1752C7.84763 14.1752 9.06223 13.2661 9.06223 11.7096C9.06223 11.0041 8.86586 10.415 8.42947 10.0368C8.02946 9.65862 7.61489 9.49134 6.66939 9.36042L4.77113 9.09132C3.46198 8.9095 2.42193 8.45857 1.71644 7.80399C0.930951 7.05487 0.545479 6.04391 0.545479 4.73476C0.545479 1.92009 2.57466 0 5.92027 0C8.044 0 9.53498 0.545479 10.9169 1.84008L9.36042 3.3747C8.37129 2.42193 7.21487 2.13101 5.85481 2.13101C3.95654 2.13101 2.9165 3.22196 2.9165 4.64021C2.9165 5.22933 3.09832 5.75299 3.52743 6.13119C3.93472 6.49484 4.5893 6.76394 5.33842 6.88031L7.17123 7.14942C8.66221 7.38215 9.49861 7.74581 10.175 8.35674C11.0623 9.12041 11.4842 10.2768 11.4842 11.6514C11.4842 14.6116 9.0695 16.3717 5.70208 16.3717" fill="white"/>
<path d="M24.0884 9.60771V16.2262H21.6446V9.60771L16.8372 0.138184H19.4991L22.8738 7.21487L26.2412 0.138184H28.9032L24.0884 9.60771Z" fill="white"/>
<path d="M39.9072 16.3644C37.4925 16.3644 35.747 15.7971 34.2124 14.2407L35.8343 12.6406C37.0125 13.8116 38.2999 14.1752 39.9508 14.1752C42.0528 14.1752 43.2746 13.2661 43.2746 11.7097C43.2746 11.0042 43.071 10.4151 42.6346 10.0369C42.2273 9.65867 41.82 9.49139 40.8745 9.36048L38.9763 9.09137C37.6671 8.90955 36.6343 8.45862 35.9288 7.80404C35.1361 7.05492 34.7579 6.04396 34.7579 4.73481C34.7579 1.93468 36.7871 0.00732422 40.1327 0.00732422C42.2564 0.00732422 43.7474 0.552804 45.1293 1.84741L43.5656 3.38202C42.5691 2.42925 41.42 2.13833 40.0599 2.13833C38.1617 2.13833 37.1216 3.22929 37.1216 4.64753C37.1216 5.23665 37.3035 5.76031 37.7326 6.13851C38.1399 6.50216 38.7944 6.77127 39.5436 6.88764L41.3691 7.15674C42.8601 7.38948 43.6965 7.75313 44.3801 8.36407C45.2602 9.12774 45.6893 10.2842 45.6893 11.6588C45.6893 14.6189 43.2746 16.379 39.8999 16.379" fill="white"/>
<path d="M58.9336 2.32737V16.2262H56.4972V2.32737H52.0679V0.138184H63.3702V2.32737H58.9336Z" fill="white"/>
<path d="M70.665 16.2262V0.138184H80.9491V2.32737H73.1088V7.03304H79.7927V9.20041H73.1088V14.037H80.9491V16.2262H70.665Z" fill="white"/>
<path d="M96.7244 16.2262L93.2187 10.0659L89.7422 16.2262H86.9348L91.9096 7.97854L87.2548 0.138184H90.055L93.2187 5.89845L96.4116 0.138184H99.2117L94.557 7.97854L99.5463 16.2262H96.7244Z" fill="white"/>
<path d="M93.2261 5.33838L91.5242 7.98577L93.2261 10.6404L94.9134 7.98577L93.2261 5.33838Z" fill="#E72410"/>
<path d="M108.55 15.9644H107.503V11.4187C107.139 12.1533 106.79 12.7497 106.47 13.2152L105.445 12.8152C106.288 11.746 106.921 10.5823 107.358 9.32411H105.51V8.27679H107.503V3.20747H108.55V8.27679H110.303V9.32411H108.55V9.40411C109.234 10.226 109.867 11.0769 110.463 11.957L109.612 12.5824C109.314 12.0733 108.958 11.5351 108.55 10.946V15.9644ZM106.456 4.2257C106.834 5.66576 107.067 6.70581 107.147 7.34584L106.165 7.46221C106.012 6.36398 105.787 5.35302 105.488 4.42207L106.456 4.2257ZM110.463 4.53116C110.209 5.67303 109.954 6.62581 109.707 7.39675L108.776 7.04764C109.154 5.98578 109.401 5.05483 109.51 4.26206L110.463 4.52389V4.53116ZM118.114 7.37493V8.32043H110.507V7.37493H113.692V6.61853H111.089V5.67303H113.692V4.91664H110.827V3.97114H113.692V3.2002H114.798V3.97114H117.904V4.91664H114.798V5.67303H117.533V6.61853H114.798V7.37493H118.114ZM112.034 15.848H110.929V9.33138C110.929 9.1641 111.016 9.07683 111.183 9.07683H117.394C117.569 9.07683 117.656 9.1641 117.656 9.33138V14.6989C117.656 15.1426 117.482 15.4844 117.14 15.7244C116.689 16.0226 115.845 16.0444 114.616 15.7753V14.5534C115.503 14.8298 116.049 14.8953 116.26 14.7498C116.456 14.6334 116.551 14.4734 116.551 14.2552V13.5279H112.02V15.8553L112.034 15.848ZM116.558 10.8224V10.0951C116.558 10.0441 116.529 10.0151 116.464 10.0151H112.107C112.056 10.0151 112.027 10.0441 112.027 10.0951V10.8224H116.558ZM116.558 12.5752V11.7606H112.027V12.5752H116.558Z" fill="white"/>
<path d="M123.809 5.38206V6.48757H119.598V5.38206H123.809ZM124.202 13.0697C124.311 12.4369 124.369 11.6587 124.377 10.7205V5.47661C124.384 5.27297 124.486 5.17114 124.682 5.17114H127.948C127.94 4.5893 127.933 3.98563 127.933 3.36742L129.031 3.47652C129.002 4.04382 128.995 4.61112 129.002 5.17842H131.788V6.28392H129.024C129.089 8.08764 129.3 9.73135 129.671 11.2005C129.795 10.9023 129.919 10.5896 130.035 10.2696C130.282 9.51316 130.457 8.48766 130.566 7.17851L131.657 7.36761C131.417 9.38952 130.886 11.1278 130.064 12.5824C130.231 13.0551 130.413 13.5061 130.61 13.9352C130.74 14.2406 130.864 14.3861 130.966 14.3861C130.995 14.3861 131.01 14.3425 131.017 14.2625C131.046 14.0588 131.053 13.5133 131.053 12.626L132.115 12.8951C132.035 14.117 131.948 14.9025 131.861 15.2443C131.781 15.4843 131.686 15.6443 131.57 15.7389C131.439 15.848 131.293 15.8989 131.133 15.8989C130.551 15.8916 129.948 15.1352 129.33 13.6443C128.479 14.6552 127.504 15.4262 126.406 15.9571L125.664 15.1061C127.009 14.5243 128.1 13.6588 128.929 12.5169C128.42 10.9678 128.1 8.89495 127.991 6.29119H125.613C125.518 6.29847 125.467 6.34938 125.467 6.43666V7.81854H127.402C127.642 7.81126 127.766 7.86217 127.773 7.97854V11.6151C127.766 12.4806 127.497 13.106 126.966 13.4915C126.718 13.6443 126.231 13.6224 125.504 13.4406V12.3351C125.969 12.546 126.253 12.626 126.34 12.5751C126.464 12.4951 126.558 12.3715 126.617 12.2042C126.682 12.0442 126.718 11.906 126.718 11.7896V8.89495C126.711 8.80767 126.66 8.76403 126.573 8.76403H125.46V11.0769C125.446 12.786 125.133 14.3206 124.515 15.6734L123.627 15.3389C123.598 15.3825 123.555 15.4043 123.497 15.4043H119.94C119.845 15.4043 119.795 15.3534 119.795 15.2443V10.7278C119.802 10.6332 119.853 10.5823 119.94 10.5823H123.497C123.606 10.5896 123.657 10.6405 123.657 10.7278V14.7934C123.904 14.1897 124.078 13.6224 124.187 13.0915L124.202 13.0697ZM123.38 3.62925V4.73476H119.969V3.62925H123.38ZM123.38 7.10578V8.1531H120.02V7.10578H123.38ZM123.38 8.80767V9.85499H120.02V8.80767H123.38ZM120.951 11.6078C120.951 11.6078 120.9 11.6223 120.915 11.6514V14.277C120.915 14.277 120.915 14.3206 120.951 14.3352H122.515C122.515 14.3352 122.566 14.3061 122.566 14.277V11.6514C122.566 11.6514 122.551 11.6078 122.515 11.6078H120.951ZM130.166 3.20014C130.588 3.44016 131.046 3.78199 131.533 4.23292L130.857 5.05477C130.333 4.59657 129.897 4.26201 129.54 4.04382L130.166 3.19287V3.20014Z" fill="white"/>
<path d="M136.872 6.64007C135.788 7.49102 134.792 8.02195 133.882 8.23287L133.381 7.22192C134.442 6.93827 135.373 6.45825 136.166 5.78912L136.872 6.64007ZM137.708 14.0804L137.948 14.9532C136.85 15.375 135.483 15.7168 133.861 15.9641L133.621 14.8732C135.017 14.6332 136.181 14.3713 137.112 14.0731H135.243C135.148 14.0731 135.097 14.0222 135.097 13.9131V8.17469C135.104 8.08014 135.155 8.02923 135.243 8.02923H144.276C144.385 8.0365 144.436 8.08741 144.436 8.17469V13.9131C144.436 14.0222 144.385 14.0731 144.276 14.0731H142.203C143.577 14.3422 144.785 14.6332 145.832 14.9459L145.49 15.9787C144.116 15.5205 142.792 15.2077 141.519 15.0405L141.774 14.0731H137.723L137.708 14.0804ZM136.668 3.81085V4.85817H133.679V3.81085H136.668ZM143.272 9.76021V9.08382C143.272 9.08382 143.25 9.03291 143.221 9.03291H136.29C136.29 9.03291 136.239 9.04745 136.253 9.08382V9.76021H143.279H143.272ZM136.246 12.3494V13.0113C136.246 13.0113 136.246 13.0695 136.283 13.0767H143.214C143.214 13.0767 143.265 13.0476 143.265 13.0113V12.3494H136.239H136.246ZM143.272 11.4112V10.7057H136.246V11.4112H143.272ZM137.177 7.91286L136.748 6.85099C137.075 6.79281 137.366 6.74917 137.614 6.72008C138.712 6.50916 139.577 5.89822 140.217 4.88727H138.734C138.166 5.44729 137.744 5.81094 137.475 5.97822L136.675 5.17819C137.534 4.61089 138.203 3.91268 138.69 3.09082L139.635 3.67267C139.577 3.75267 139.526 3.8254 139.49 3.88358H145.119L145.745 4.49452C145.214 5.17819 144.639 5.81822 144.021 6.40734L143.17 5.70185C143.497 5.38911 143.781 5.12 144.021 4.87999H141.446C142.217 6.1746 143.694 6.9019 145.868 7.05464L145.534 8.17469C145.49 8.16741 145.454 8.16014 145.425 8.16014C143.396 7.93468 141.876 7.15646 140.857 5.81822C140.195 6.88736 138.966 7.58557 137.177 7.90558V7.91286Z" fill="white"/>
<path d="M152.618 5.48384V6.58934H147.396V5.48384H152.618ZM151.898 15.4843H147.912C147.818 15.4843 147.767 15.4334 147.767 15.3243V10.7059C147.774 10.6113 147.825 10.5604 147.912 10.5604H151.898C152.007 10.5677 152.058 10.6186 152.058 10.7059V15.3243C152.058 15.4334 152.007 15.4843 151.898 15.4843ZM151.818 7.21483V8.26215H148.036V7.21483H151.818ZM151.818 8.90945V9.95677H148.036V8.90945H151.818ZM151.818 3.73103V4.83654H148.087V3.73103H151.818ZM148.909 11.6078C148.909 11.6078 148.858 11.6223 148.865 11.6514V14.3861C148.865 14.3861 148.865 14.4297 148.909 14.437H150.901C150.901 14.437 150.96 14.4079 150.96 14.3861V11.6514C150.96 11.6514 150.938 11.6078 150.901 11.6078H148.909ZM154.007 4.85835H152.691V3.70194H157.84C158.094 3.66557 158.233 3.74558 158.24 3.9274C158.153 9.77494 158.254 13.1205 158.56 13.9642C158.596 14.0588 158.669 14.1097 158.771 14.0951C158.807 14.0879 158.829 14.037 158.836 13.9497C158.851 13.5788 158.858 13.0187 158.851 12.2623L159.993 12.4878C159.898 14.2115 159.673 15.2661 159.331 15.6516C159.149 15.8261 158.96 15.9134 158.771 15.9134C158.531 15.9061 158.327 15.8189 158.16 15.6516C157.804 15.2443 157.571 14.7206 157.469 14.0806C157.156 12.8369 157.033 9.82585 157.083 5.062C157.12 4.94563 157.069 4.88017 156.923 4.85108H155.156V8.93127C155.622 8.74944 156 8.59671 156.269 8.48034L156.691 9.55675C156.371 9.71676 155.84 9.9204 155.098 10.1677C155.011 10.9314 154.923 11.5641 154.843 12.066C154.509 13.6515 154.029 14.8443 153.411 15.637L152.232 15.2806C153.214 13.8988 153.789 12.3132 153.949 10.5241C153.396 10.6841 152.938 10.8077 152.552 10.895L152.138 9.80403C152.676 9.6513 153.301 9.48402 154 9.28765V4.85108L154.007 4.85835Z" fill="white"/>
</g>
<defs>
<clipPath id="clip0_2814_16536">
<rect width="160" height="16.3644" fill="white"/>
</clipPath>
</defs>
</svg>
