<svg width="44" height="44" viewBox="0 0 44 44" fill="none" xmlns="http://www.w3.org/2000/svg">
<path d="M16.8571 25.8571H14.2857V29.7143H16.8571V25.8571ZM23.2857 20.7143H20.7143V29.7143H23.2857V20.7143ZM29.7143 14.2857V29.7143H27.1429V14.2857H29.7143ZM27.1429 13C26.8019 13 26.4748 13.1355 26.2337 13.3766C25.9926 13.6177 25.8571 13.9447 25.8571 14.2857V29.7143C25.8571 30.0553 25.9926 30.3823 26.2337 30.6234C26.4748 30.8645 26.8019 31 27.1429 31H29.7143C30.0553 31 30.3823 30.8645 30.6234 30.6234C30.8645 30.3823 31 30.0553 31 29.7143V14.2857C31 13.9447 30.8645 13.6177 30.6234 13.3766C30.3823 13.1355 30.0553 13 29.7143 13H27.1429ZM19.4286 20.7143C19.4286 20.3733 19.564 20.0463 19.8051 19.8051C20.0463 19.564 20.3733 19.4286 20.7143 19.4286H23.2857C23.6267 19.4286 23.9537 19.564 24.1949 19.8051C24.436 20.0463 24.5714 20.3733 24.5714 20.7143V29.7143C24.5714 30.0553 24.436 30.3823 24.1949 30.6234C23.9537 30.8645 23.6267 31 23.2857 31H20.7143C20.3733 31 20.0463 30.8645 19.8051 30.6234C19.564 30.3823 19.4286 30.0553 19.4286 29.7143V20.7143ZM13 25.8571C13 25.5162 13.1355 25.1891 13.3766 24.948C13.6177 24.7069 13.9447 24.5714 14.2857 24.5714H16.8571C17.1981 24.5714 17.5252 24.7069 17.7663 24.948C18.0074 25.1891 18.1429 25.5162 18.1429 25.8571V29.7143C18.1429 30.0553 18.0074 30.3823 17.7663 30.6234C17.5252 30.8645 17.1981 31 16.8571 31H14.2857C13.9447 31 13.6177 30.8645 13.3766 30.6234C13.1355 30.3823 13 30.0553 13 29.7143V25.8571Z" fill="#C1CBDB"/>
</svg>
