<svg width="60" height="61" viewBox="0 0 60 61" fill="none" xmlns="http://www.w3.org/2000/svg">
<rect y="0.5" width="60" height="60" rx="16" fill="#9D8160"/>
<g clip-path="url(#clip0_2250_28797)">
<g clip-path="url(#clip1_2250_28797)">
<path d="M34.9699 34.98V33.79H24.6299V34.98C24.6299 35.11 24.7399 35.21 24.8599 35.21H34.7399C34.8599 35.21 34.9699 35.1 34.9699 34.98Z" fill="white"/>
<path d="M34.9699 31.6599H24.6299V32.7899H34.9699V31.6599Z" fill="white"/>
<path d="M49.41 29.1001C50.4001 28.0601 50.1001 26.3601 48.8101 25.7101L44.69 23.6501C43.92 23.2701 43.46 22.4601 43.51 21.6101L43.78 17.0101C43.8601 15.5801 42.54 14.4701 41.15 14.8001L36.67 15.8701C35.84 16.0701 34.97 15.7501 34.45 15.0601L31.7 11.3601C30.84 10.2101 29.12 10.2101 28.26 11.3601L25.51 15.0601C25 15.7501 24.13 16.0601 23.29 15.8701L18.81 14.8001C17.41 14.4701 16.09 15.5801 16.18 17.0101L16.45 21.6101C16.5 22.4701 16.04 23.2701 15.27 23.6501L11.15 25.7101C9.87005 26.3501 9.57005 28.0501 10.55 29.1001L13.71 32.4501C14.3 33.0701 14.46 33.9901 14.12 34.7701L12.29 39.0001C11.72 40.3201 12.58 41.8101 14.01 41.9801L18.58 42.5101C19.43 42.6101 20.14 43.2001 20.39 44.0301L21.71 48.4401C22.12 49.8201 23.74 50.4101 24.94 49.6201L28.78 47.0901C29.5 46.6201 30.42 46.6201 31.14 47.0901L34.98 49.6201C36.18 50.4101 37.8 49.8201 38.21 48.4401L39.53 44.0301C39.77 43.2101 40.49 42.6101 41.34 42.5101L45.91 41.9801C47.34 41.8101 48.2001 40.3201 47.6301 39.0001L45.8 34.7701C45.46 33.9801 45.62 33.0701 46.21 32.4501L49.37 29.1001H49.41ZM22.76 23.4901H26.55C26.83 23.4901 27.05 23.7101 27.05 23.9901C27.05 24.2701 26.83 24.4901 26.55 24.4901H22.76C22.48 24.4901 22.26 24.2701 22.26 23.9901C22.26 23.7101 22.48 23.4901 22.76 23.4901ZM22.18 27.2701C21.9 27.2701 21.68 27.0501 21.68 26.7701C21.68 26.4901 21.9 26.2701 22.18 26.2701H27.14C27.42 26.2701 27.64 26.4901 27.64 26.7701C27.64 27.0501 27.42 27.2701 27.14 27.2701H22.18ZM27.95 37.3501C26.87 38.1101 24.69 38.7101 22.78 38.7701C22.78 38.7701 22.77 38.7701 22.76 38.7701C22.49 38.7701 22.27 38.5601 22.26 38.2901C22.26 38.0101 22.47 37.7801 22.74 37.7701C24.69 37.7101 26.58 37.0901 27.37 36.5301C27.59 36.3701 27.91 36.4201 28.07 36.6501C28.23 36.8801 28.18 37.1901 27.95 37.3501ZM24.86 36.2101C24.18 36.2101 23.63 35.6601 23.63 34.9801V29.4701C23.63 28.7901 24.18 28.2401 24.86 28.2401H34.74C35.42 28.2401 35.97 28.7901 35.97 29.4701V34.9801C35.97 35.6601 35.42 36.2101 34.74 36.2101H24.86ZM36.58 38.5001C36.49 38.6701 36.32 38.7701 36.14 38.7701C36.06 38.7701 35.98 38.7501 35.91 38.7101C34.77 38.1101 32.95 37.4601 31.25 37.4601C30.97 37.4601 30.75 37.2401 30.75 36.9601C30.75 36.6801 30.97 36.4601 31.25 36.4601C33.13 36.4601 35.13 37.1601 36.37 37.8201C36.61 37.9501 36.71 38.2501 36.58 38.5001ZM37.7 28.2101C37.63 28.4101 37.43 28.5401 37.23 28.5401C37.17 28.5401 37.11 28.5401 37.06 28.5101C35.35 27.8901 34.28 27.1301 33.42 26.5201C33.29 26.4301 33.16 26.3401 33.04 26.2501C32.07 27.0801 30.44 27.7101 29.01 28.0501C28.74 28.1101 28.47 27.9501 28.41 27.6801C28.35 27.4101 28.51 27.1401 28.78 27.0801C30.63 26.6301 31.99 25.9301 32.58 25.3201C32.61 25.2801 32.64 25.2501 32.67 25.2201C32.81 25.0601 32.89 24.9101 32.91 24.7701C32.95 24.5001 33.21 24.3101 33.48 24.3501C33.75 24.3901 33.94 24.6501 33.9 24.9201C33.87 25.1101 33.8 25.3001 33.7 25.4801C33.8 25.5501 33.9 25.6201 34.01 25.7001C34.87 26.3101 35.84 26.9901 37.42 27.5701C37.68 27.6601 37.81 27.9501 37.72 28.2101H37.7ZM38.2 23.8701L36.61 25.7001C36.43 25.9101 36.11 25.9301 35.9 25.7501C35.69 25.5701 35.67 25.2501 35.85 25.0401L36.72 24.0401H30.45C29.73 24.8401 28.97 25.5101 28.45 25.8101C28.37 25.8501 28.29 25.8801 28.2 25.8801C28.03 25.8801 27.86 25.7901 27.77 25.6301C27.63 25.3901 27.72 25.0801 27.96 24.9501C28.37 24.7201 29.1 24.0801 29.79 23.3001C29.82 23.2501 29.86 23.2001 29.91 23.1601C30.24 22.7701 30.56 22.3501 30.83 21.9301C30.98 21.7001 31.29 21.6301 31.52 21.7701C31.75 21.9201 31.82 22.2301 31.68 22.4601C31.56 22.6601 31.42 22.8501 31.28 23.0501H37.83C38.03 23.0501 38.2 23.1601 38.29 23.3401C38.38 23.5201 38.34 23.7301 38.21 23.8801L38.2 23.8701Z" fill="white"/>
<path d="M34.9699 29.47C34.9699 29.34 34.8599 29.24 34.7399 29.24H24.8599C24.7399 29.24 24.6299 29.35 24.6299 29.47V30.66H34.9699V29.47Z" fill="white"/>
</g>
</g>
<defs>
<clipPath id="clip0_2250_28797">
<rect width="40" height="40" fill="white" transform="translate(10 10.5)"/>
</clipPath>
<clipPath id="clip1_2250_28797">
<rect width="40" height="39.46" fill="white" transform="translate(10 10.5)"/>
</clipPath>
</defs>
</svg>
