<svg width="38" height="38" viewBox="0 0 38 38" fill="none" xmlns="http://www.w3.org/2000/svg">
<rect width="38" height="38" rx="19" fill="#FFA800"/>
<g clip-path="url(#clip0_3062_26767)">
<path d="M9 11.5C9 10.837 9.26339 10.2011 9.73223 9.73223C10.2011 9.26339 10.837 9 11.5 9H26.5C27.163 9 27.7989 9.26339 28.2678 9.73223C28.7366 10.2011 29 10.837 29 11.5V26.5C29 27.163 28.7366 27.7989 28.2678 28.2678C27.7989 28.7366 27.163 29 26.5 29H11.5C10.837 29 10.2011 28.7366 9.73223 28.2678C9.26339 27.7989 9 27.163 9 26.5V11.5ZM27.75 14H22.75V17.75H27.75V14ZM27.75 19H22.75V22.75H27.75V19ZM27.75 24H22.75V27.75H26.5C26.8315 27.75 27.1495 27.6183 27.3839 27.3839C27.6183 27.1495 27.75 26.8315 27.75 26.5V24ZM21.5 27.75V24H16.5V27.75H21.5ZM15.25 27.75V24H10.25V26.5C10.25 26.8315 10.3817 27.1495 10.6161 27.3839C10.8505 27.6183 11.1685 27.75 11.5 27.75H15.25ZM10.25 22.75H15.25V19H10.25V22.75ZM10.25 17.75H15.25V14H10.25V17.75ZM16.5 14V17.75H21.5V14H16.5ZM21.5 19H16.5V22.75H21.5V19Z" fill="#273347"/>
</g>
<defs>
<clipPath id="clip0_3062_26767">
<rect width="20" height="20" fill="white" transform="translate(9 9)"/>
</clipPath>
</defs>
</svg>
