<svg width="44" height="44" viewBox="0 0 44 44" fill="none" xmlns="http://www.w3.org/2000/svg">
<path fill-rule="evenodd" clip-rule="evenodd" d="M25.75 30.75C27.0761 30.75 28.3479 30.2232 29.2855 29.2855C30.2232 28.3479 30.75 27.0761 30.75 25.75C30.75 24.4239 30.2232 23.1521 29.2855 22.2145C28.3479 21.2768 27.0761 20.75 25.75 20.75C24.4239 20.75 23.1521 21.2768 22.2145 22.2145C21.2768 23.1521 20.75 24.4239 20.75 25.75C20.75 27.0761 21.2768 28.3479 22.2145 29.2855C23.1521 30.2232 24.4239 30.75 25.75 30.75ZM32 25.75C32 27.4076 31.3415 28.9973 30.1694 30.1694C28.9973 31.3415 27.4076 32 25.75 32C24.0924 32 22.5027 31.3415 21.3306 30.1694C20.1585 28.9973 19.5 27.4076 19.5 25.75C19.5 24.0924 20.1585 22.5027 21.3306 21.3306C22.5027 20.1585 24.0924 19.5 25.75 19.5C27.4076 19.5 28.9973 20.1585 30.1694 21.3306C31.3415 22.5027 32 24.0924 32 25.75Z" fill="#C1CBDB"/>
<path d="M23.7975 26.93C23.8563 27.675 24.445 28.255 25.5013 28.325V28.875H25.97V28.3212C27.0638 28.245 27.7025 27.66 27.7025 26.8125C27.7025 26.04 27.215 25.6425 26.34 25.4375L25.97 25.35V23.85C26.44 23.9037 26.7375 24.16 26.8088 24.515H27.6313C27.5725 23.7963 26.9563 23.235 25.97 23.1738V22.625H25.5013V23.1875C24.5675 23.2787 23.9325 23.84 23.9325 24.635C23.9325 25.3375 24.405 25.785 25.1913 25.9675L25.5013 26.0437V27.6337C25.0213 27.5612 24.7025 27.2963 24.6313 26.93H23.7975ZM25.4975 25.2375C25.0363 25.1313 24.7863 24.9125 24.7863 24.585C24.7863 24.2175 25.0563 23.9425 25.5013 23.8625V25.2375H25.4975ZM26.0375 26.17C26.5988 26.3 26.8563 26.51 26.8563 26.8812C26.8563 27.305 26.535 27.595 25.97 27.6488V26.155L26.0375 26.17Z" fill="#C1CBDB"/>
<path d="M13.25 12C12.9185 12 12.6005 12.1317 12.3661 12.3661C12.1317 12.6005 12 12.9185 12 13.25V23.25C12 23.5815 12.1317 23.8995 12.3661 24.1339C12.6005 24.3683 12.9185 24.5 13.25 24.5H18.3538C18.4271 24.0692 18.5346 23.6525 18.6762 23.25H15.75C15.75 22.587 15.4866 21.9511 15.0178 21.4822C14.5489 21.0134 13.913 20.75 13.25 20.75V15.75C13.913 15.75 14.5489 15.4866 15.0178 15.0178C15.4866 14.5489 15.75 13.913 15.75 13.25H28.25C28.25 13.913 28.5134 14.5489 28.9822 15.0178C29.4511 15.4866 30.087 15.75 30.75 15.75V20.16C31.225 20.585 31.6462 21.07 32 21.6025V13.25C32 12.9185 31.8683 12.6005 31.6339 12.3661C31.3995 12.1317 31.0815 12 30.75 12H13.25Z" fill="#C1CBDB"/>
<path d="M24.4975 18.3538L24.5 18.25C24.4997 17.8195 24.3883 17.3963 24.1765 17.0215C23.9647 16.6467 23.6597 16.333 23.291 16.1107C22.9224 15.8883 22.5026 15.765 22.0722 15.7525C21.6419 15.7401 21.2156 15.839 20.8348 16.0397C20.4539 16.2403 20.1313 16.5359 19.8982 16.8979C19.6651 17.2598 19.5294 17.6758 19.5043 18.1056C19.4791 18.5354 19.5654 18.9644 19.7548 19.351C19.9441 19.7376 20.2301 20.0688 20.585 20.3125C21.6655 19.2852 23.0276 18.6033 24.4975 18.3538Z" fill="#C1CBDB"/>
</svg>
