<svg width="60" height="61" viewBox="0 0 60 61" fill="none" xmlns="http://www.w3.org/2000/svg">
<rect y="0.5" width="60" height="60" rx="16" fill="#37BCC5"/>
<g clip-path="url(#clip0_2250_24476)">
<g clip-path="url(#clip1_2250_24476)">
<path d="M33.0801 36.4299C32.5501 36.4299 32.1201 36.8599 32.1201 37.3899C32.1201 37.9199 32.5501 38.3499 33.0801 38.3499C33.6101 38.3499 34.0401 37.9199 34.0401 37.3899C34.0401 36.8599 33.6101 36.4299 33.0801 36.4299Z" fill="white"/>
<path d="M26.5401 31.8199C27.0703 31.8199 27.5001 31.3901 27.5001 30.8599C27.5001 30.3297 27.0703 29.8999 26.5401 29.8999C26.0099 29.8999 25.5801 30.3297 25.5801 30.8599C25.5801 31.3901 26.0099 31.8199 26.5401 31.8199Z" fill="white"/>
<path d="M43.33 24.1601L30.24 10.7001C29.98 10.4301 29.54 10.4301 29.28 10.7001L16.19 24.1601C15.78 24.5901 16.08 25.3001 16.67 25.3001H20.68C21.05 25.3001 21.35 25.6001 21.35 25.9701V45.2201C21.35 46.9201 19.35 48.3001 17.46 49.2201C16.82 49.5301 17.05 50.4901 17.76 50.4901H27.3C34.89 50.4901 38.17 48.8601 38.17 45.2201V25.9701C38.17 25.6001 38.47 25.3001 38.84 25.3001H42.85C43.44 25.3001 43.75 24.5901 43.33 24.1601ZM24.58 30.8601C24.58 29.7801 25.46 28.9001 26.54 28.9001C27.62 28.9001 28.5 29.7801 28.5 30.8601C28.5 31.9401 27.62 32.8201 26.54 32.8201C25.46 32.8201 24.58 31.9401 24.58 30.8601ZM26.3 38.3401C26.2 38.4401 26.07 38.4901 25.95 38.4901C25.83 38.4901 25.69 38.4401 25.6 38.3401C25.4 38.1401 25.4 37.8301 25.6 37.6301L33.32 29.9101C33.52 29.7101 33.83 29.7101 34.03 29.9101C34.23 30.1101 34.23 30.4201 34.03 30.6201L26.31 38.3401H26.3ZM33.08 39.3501C32 39.3501 31.12 38.4701 31.12 37.3901C31.12 36.3101 32 35.4301 33.08 35.4301C34.16 35.4301 35.04 36.3101 35.04 37.3901C35.04 38.4701 34.16 39.3501 33.08 39.3501Z" fill="white"/>
</g>
</g>
<defs>
<clipPath id="clip0_2250_24476">
<rect width="40" height="40" fill="white" transform="translate(10 10.5)"/>
</clipPath>
<clipPath id="clip1_2250_24476">
<rect width="27.52" height="40" fill="white" transform="translate(16 10.5)"/>
</clipPath>
</defs>
</svg>
