<svg width="60" height="61" viewBox="0 0 60 61" fill="none" xmlns="http://www.w3.org/2000/svg">
<rect y="0.5" width="60" height="60" rx="16" fill="#C68C1D"/>
<g clip-path="url(#clip0_2250_28843)">
<g clip-path="url(#clip1_2250_28843)">
<path d="M35.5002 35.34V34.26H28.4502V35.34C28.4502 35.34 28.4902 35.42 28.5302 35.42H35.4202C35.4202 35.42 35.5002 35.38 35.5002 35.34Z" fill="white"/>
<path d="M35.5002 32.3601H28.4502V33.2601H35.5002V32.3601Z" fill="white"/>
<path d="M35.5002 30.28C35.5002 30.28 35.4602 30.2 35.4202 30.2H28.5302C28.5302 30.2 28.4502 30.24 28.4502 30.28V31.36H35.5002V30.28Z" fill="white"/>
<path d="M49.41 29.1001C50.4001 28.0601 50.1001 26.3601 48.8101 25.7101L44.69 23.6501C43.92 23.2701 43.46 22.4601 43.51 21.6101L43.78 17.0101C43.8601 15.5801 42.54 14.4701 41.15 14.8001L36.67 15.8701C35.84 16.0701 34.97 15.7501 34.45 15.0601L31.7 11.3601C30.84 10.2101 29.12 10.2101 28.26 11.3601L25.51 15.0601C25 15.7501 24.13 16.0601 23.29 15.8701L18.81 14.8001C17.41 14.4701 16.09 15.5801 16.18 17.0101L16.45 21.6101C16.5 22.4701 16.04 23.2701 15.27 23.6501L11.15 25.7101C9.87005 26.3501 9.57005 28.0501 10.55 29.1001L13.71 32.4501C14.3 33.0701 14.46 33.9901 14.12 34.7701L12.29 39.0001C11.72 40.3201 12.58 41.8101 14.01 41.9801L18.58 42.5101C19.43 42.6101 20.14 43.2001 20.39 44.0301L21.71 48.4401C22.12 49.8201 23.74 50.4101 24.94 49.6201L28.78 47.0901C29.5 46.6201 30.42 46.6201 31.14 47.0901L34.98 49.6201C36.18 50.4101 37.8 49.8201 38.21 48.4401L39.53 44.0301C39.77 43.2101 40.49 42.6101 41.34 42.5101L45.91 41.9801C47.34 41.8101 48.2001 40.3201 47.6301 39.0001L45.8 34.7701C45.46 33.9801 45.62 33.0701 46.21 32.4501L49.37 29.1001H49.41ZM24.84 25.7301V37.7301C24.84 38.0101 24.62 38.2301 24.34 38.2301C24.06 38.2301 23.84 38.0101 23.84 37.7301V27.3601C22.98 28.6401 22 29.7701 21.15 30.2501C21.07 30.2901 20.99 30.3201 20.9 30.3201C20.73 30.3201 20.56 30.2301 20.47 30.0701C20.33 29.8301 20.42 29.5301 20.66 29.3901C22.29 28.4601 24.83 24.1401 25.14 22.4901C25.19 22.2201 25.46 22.0401 25.73 22.0901C26 22.1401 26.18 22.4001 26.13 22.6801C25.99 23.4201 25.5 24.5601 24.85 25.7401L24.84 25.7301ZM30.82 36.5601C30.99 36.7801 30.94 37.0901 30.72 37.2601C29.82 37.9501 27.98 38.5601 26.96 38.7701C26.92 38.7701 26.89 38.7801 26.86 38.7801C26.63 38.7801 26.42 38.6201 26.37 38.3801C26.31 38.1101 26.49 37.8401 26.76 37.7901C27.84 37.5601 29.45 36.9701 30.12 36.4601C30.14 36.4401 30.17 36.4401 30.2 36.4201H28.54C27.94 36.4201 27.46 35.9301 27.46 35.3401V30.2801C27.46 29.6801 27.95 29.2001 28.54 29.2001H35.43C36.03 29.2001 36.51 29.6901 36.51 30.2801V35.3401C36.51 35.9401 36.02 36.4201 35.43 36.4201H30.68C30.74 36.4501 30.79 36.5001 30.83 36.5501L30.82 36.5601ZM37.51 38.6101C37.42 38.7601 37.25 38.8501 37.09 38.8501C37 38.8501 36.91 38.8301 36.83 38.7701C36.27 38.4201 34.8 37.6201 33.15 37.6201C32.87 37.6201 32.65 37.4001 32.65 37.1201C32.65 36.8401 32.87 36.6201 33.15 36.6201C34.99 36.6201 36.58 37.4401 37.36 37.9301C37.59 38.0801 37.67 38.3801 37.52 38.6201L37.51 38.6101ZM37.09 28.5101H26.86C26.58 28.5101 26.36 28.2901 26.36 28.0101C26.36 27.7301 26.58 27.5101 26.86 27.5101H31.48V26.4601H27.89C27.61 26.4601 27.39 26.2401 27.39 25.9601C27.39 25.6801 27.61 25.4601 27.89 25.4601H31.48V24.4101H27.48C27.2 24.4101 26.98 24.1901 26.98 23.9101C26.98 23.6301 27.2 23.4101 27.48 23.4101H31.48V22.1101C31.48 21.8301 31.7 21.6101 31.98 21.6101C32.26 21.6101 32.48 21.8301 32.48 22.1101V23.4101H36.48C36.76 23.4101 36.98 23.6301 36.98 23.9101C36.98 24.1901 36.76 24.4101 36.48 24.4101H32.48V25.4601H36.07C36.35 25.4601 36.57 25.6801 36.57 25.9601C36.57 26.2401 36.35 26.4601 36.07 26.4601H32.48V27.5101H37.1C37.38 27.5101 37.6 27.7301 37.6 28.0101C37.6 28.2901 37.38 28.5101 37.1 28.5101H37.09Z" fill="white"/>
</g>
</g>
<defs>
<clipPath id="clip0_2250_28843">
<rect width="40" height="40" fill="white" transform="translate(10 10.5)"/>
</clipPath>
<clipPath id="clip1_2250_28843">
<rect width="40" height="39.46" fill="white" transform="translate(10 10.5)"/>
</clipPath>
</defs>
</svg>
