<svg width="44" height="44" viewBox="0 0 44 44" fill="none" xmlns="http://www.w3.org/2000/svg">
<path fill-rule="evenodd" clip-rule="evenodd" d="M13 13H14.125V29.875H31V31H13V13ZM29.6691 26.3729C29.7263 26.3261 29.7738 26.2684 29.8087 26.2033C29.8436 26.1381 29.8653 26.0668 29.8726 25.9932C29.88 25.9196 29.8727 25.8454 29.8513 25.7746C29.8299 25.7039 29.7947 25.638 29.7479 25.5809L24.6854 19.3934C24.6356 19.3326 24.5737 19.283 24.5036 19.2476C24.4335 19.2123 24.3568 19.192 24.2783 19.1881C24.1999 19.1841 24.1216 19.1967 24.0483 19.2249C23.975 19.2531 23.9084 19.2963 23.8529 19.3517L20.9425 22.2621L16.8295 16.6068C16.7395 16.4923 16.6087 16.4173 16.4645 16.3973C16.3204 16.3773 16.1741 16.414 16.0564 16.4997C15.9387 16.5853 15.8588 16.7132 15.8334 16.8566C15.8081 16.9999 15.8393 17.1474 15.9205 17.2682L20.4205 23.4557C20.4683 23.5215 20.5297 23.5762 20.6006 23.616C20.6716 23.6557 20.7503 23.6796 20.8313 23.686C20.9124 23.6925 20.9938 23.6812 21.0701 23.6531C21.1464 23.625 21.2157 23.5807 21.2733 23.5233L24.2084 20.587L28.8771 26.2941C28.9239 26.3513 28.9816 26.3988 29.0467 26.4337C29.1119 26.4686 29.1832 26.4903 29.2568 26.4976C29.3304 26.505 29.4046 26.4977 29.4754 26.4763C29.5461 26.4549 29.612 26.4197 29.6691 26.3729Z" fill="#D9CAB8"/>
</svg>
