<svg width="24" height="24" viewBox="0 0 24 24" fill="none" xmlns="http://www.w3.org/2000/svg">
<path d="M11.375 3.2725C9.75497 3.38859 8.19922 3.9533 6.88192 4.90341C5.56462 5.85352 4.53776 7.15152 3.9163 8.65211C3.29483 10.1527 3.1033 11.7966 3.36313 13.3999C3.62297 15.0032 4.32391 16.5025 5.3875 17.73L11.375 11.7413V3.2725ZM12.625 3.2725V11.375H20.7275C20.5771 9.2758 19.6752 7.30112 18.187 5.81296C16.6989 4.32479 14.7242 3.42286 12.625 3.2725ZM20.7275 12.625H12.2587L6.27125 18.6125C7.49878 19.6757 8.99797 20.3764 10.6011 20.636C12.2041 20.8956 13.8478 20.704 15.3482 20.0826C16.8486 19.4612 18.1464 18.4345 19.0964 17.1174C20.0465 15.8003 20.6112 14.2448 20.7275 12.625ZM2 12C2 9.34784 3.05357 6.8043 4.92893 4.92893C6.8043 3.05357 9.34784 2 12 2C14.6522 2 17.1957 3.05357 19.0711 4.92893C20.9464 6.8043 22 9.34784 22 12C22 14.6522 20.9464 17.1957 19.0711 19.0711C17.1957 20.9464 14.6522 22 12 22C9.34784 22 6.8043 20.9464 4.92893 19.0711C3.05357 17.1957 2 14.6522 2 12Z" fill="#C1CBDB"/>
</svg>
