<svg width="24" height="25" viewBox="0 0 24 25" fill="none" xmlns="http://www.w3.org/2000/svg">
<path d="M10.0001 5.07072C10.0975 5.18946 10.1571 5.3346 10.1714 5.48749C10.1856 5.64038 10.1538 5.79404 10.0801 5.92874C9.50162 6.9901 9.19967 8.18002 9.20208 9.38879C9.20208 13.4098 12.4801 16.6659 16.5202 16.6659C17.0482 16.6652 17.5592 16.6119 18.0532 16.5059C18.2043 16.4736 18.3616 16.4863 18.5056 16.5424C18.6496 16.5986 18.7739 16.6958 18.8632 16.8219C18.9577 16.9532 19.0059 17.1121 19.0003 17.2737C18.9947 17.4353 18.9356 17.5905 18.8322 17.7149C18.0478 18.6783 17.0584 19.4545 15.936 19.987C14.8135 20.5195 13.5865 20.7949 12.3441 20.793C7.73406 20.793 4 17.0789 4 12.5028C4 9.05878 6.11403 6.10474 9.12408 4.85272C9.27396 4.78902 9.44051 4.77584 9.59855 4.81517C9.7566 4.8545 9.89754 4.9442 10.0001 5.07072Z" fill="#837C6F"/>
</svg>
