<svg width="44" height="44" viewBox="0 0 44 44" fill="none" xmlns="http://www.w3.org/2000/svg">
<rect width="44" height="44" rx="22" fill="#FFA800"/>
<path d="M26 13V17M18 13V17M14 21H30M17 24H17.013M20.01 24H20.015M23.01 24H23.015M26.015 24H26.02M23.015 27H23.02M17.01 27H17.015M20.01 27H20.015M14 17C14 16.4696 14.2107 15.9609 14.5858 15.5858C14.9609 15.2107 15.4696 15 16 15H28C28.5304 15 29.0391 15.2107 29.4142 15.5858C29.7893 15.9609 30 16.4696 30 17V29C30 29.5304 29.7893 30.0391 29.4142 30.4142C29.0391 30.7893 28.5304 31 28 31H16C15.4696 31 14.9609 30.7893 14.5858 30.4142C14.2107 30.0391 14 29.5304 14 29V17Z" stroke="#273347" stroke-width="2" stroke-linecap="round" stroke-linejoin="round"/>
</svg>
