<svg width="20" height="20" viewBox="0 0 20 20" fill="none" xmlns="http://www.w3.org/2000/svg">
<g clip-path="url(#clip0_3217_16210)">
<path d="M14.6775 12.9301C15.8879 11.2785 16.43 9.23074 16.1954 7.19656C15.9608 5.16239 14.9668 3.2918 13.4122 1.95904C11.8577 0.626277 9.85721 -0.0703699 7.81107 0.00847151C5.76493 0.087313 3.824 0.935828 2.37661 2.38426C0.929213 3.83269 0.0820868 5.77422 0.00470953 7.82042C-0.0726677 9.86661 0.62541 11.8666 1.95928 13.4202C3.29316 14.9738 5.16445 15.9665 7.1988 16.1996C9.23314 16.4328 11.2805 15.8892 12.9313 14.6776H12.93C12.9667 14.7276 13.0075 14.7755 13.0525 14.8214L17.865 19.6339C18.0994 19.8684 18.4174 20.0003 18.749 20.0004C19.0805 20.0005 19.3986 19.8689 19.6331 19.6345C19.8677 19.4001 19.9995 19.0822 19.9997 18.7506C19.9998 18.419 19.8682 18.1009 19.6338 17.8664L14.8213 13.0539C14.7766 13.0086 14.7285 12.9681 14.6775 12.9301ZM15 8.12513C15 9.02796 14.8222 9.92196 14.4767 10.7561C14.1312 11.5902 13.6248 12.3481 12.9864 12.9865C12.348 13.6249 11.5901 14.1313 10.756 14.4768C9.92186 14.8223 9.02786 15.0001 8.12502 15.0001C7.22219 15.0001 6.32819 14.8223 5.49408 14.4768C4.65996 14.1313 3.90207 13.6249 3.26366 12.9865C2.62526 12.3481 2.11885 11.5902 1.77335 10.7561C1.42785 9.92196 1.25002 9.02796 1.25002 8.12513C1.25002 6.30176 1.97435 4.55308 3.26366 3.26377C4.55298 1.97445 6.30166 1.25013 8.12502 1.25013C9.94839 1.25013 11.6971 1.97445 12.9864 3.26377C14.2757 4.55308 15 6.30176 15 8.12513Z" fill="#FFA800"/>
</g>
<defs>
<clipPath id="clip0_3217_16210">
<rect width="20" height="20" fill="white"/>
</clipPath>
</defs>
</svg>
