<svg width="60" height="61" viewBox="0 0 60 61" fill="none" xmlns="http://www.w3.org/2000/svg">
<rect y="0.5" width="60" height="60" rx="16" fill="#A04EC7"/>
<g clip-path="url(#clip0_2250_24406)">
<path d="M49.4408 29.1025C50.4308 28.0625 50.1308 26.3625 48.8408 25.7125L44.7208 23.6525C43.9508 23.2725 43.4908 22.4625 43.5408 21.6125L43.8108 17.0125C43.8908 15.5825 42.5708 14.4725 41.1808 14.8025L36.7008 15.8725C35.8708 16.0725 35.0008 15.7525 34.4808 15.0625L31.7308 11.3625C30.8708 10.2125 29.1508 10.2125 28.2908 11.3625L25.5408 15.0625C25.0308 15.7525 24.1608 16.0625 23.3208 15.8725L18.8408 14.8025C17.4408 14.4725 16.1208 15.5825 16.2108 17.0125L16.4808 21.6125C16.5308 22.4725 16.0708 23.2725 15.3008 23.6525L11.1808 25.7125C9.90081 26.3525 9.60081 28.0525 10.5808 29.1025L13.7408 32.4525C14.3308 33.0725 14.4908 33.9925 14.1508 34.7725L12.3208 39.0025C11.7508 40.3225 12.6108 41.8125 14.0408 41.9825L18.6108 42.5125C19.4608 42.6125 20.1708 43.2025 20.4208 44.0325L21.7408 48.4425C22.1508 49.8225 23.7708 50.4125 24.9708 49.6225L28.8108 47.0925C29.5308 46.6225 30.4508 46.6225 31.1708 47.0925L35.0108 49.6225C36.2108 50.4125 37.8308 49.8225 38.2408 48.4425L39.5608 44.0325C39.8008 43.2125 40.5208 42.6125 41.3708 42.5125L45.9408 41.9825C47.3708 41.8125 48.2308 40.3225 47.6608 39.0025L45.8308 34.7725C45.4908 33.9825 45.6508 33.0725 46.2408 32.4525L49.4008 29.1025H49.4408ZM35.8008 38.1625H32.5808C28.9908 38.1625 28.1508 37.8525 28.1508 34.8025V32.7525H22.2508C21.9708 32.7525 21.7508 32.5325 21.7508 32.2525C21.7508 31.9725 21.9708 31.7525 22.2508 31.7525H28.1508V28.9225H22.9508C22.6708 28.9225 22.4508 28.7025 22.4508 28.4225C22.4508 28.1425 22.6708 27.9225 22.9508 27.9225H28.1508V24.9325C25.8208 25.2125 23.8908 25.2925 23.7308 25.3025C23.4708 25.3225 23.2208 25.1025 23.2108 24.8225C23.2008 24.5425 23.4108 24.3125 23.6908 24.3025C23.7708 24.3025 31.7108 23.9425 34.8508 22.3525C35.0908 22.2225 35.4008 22.3225 35.5208 22.5725C35.6408 22.8225 35.5508 23.1225 35.3008 23.2425C33.8008 24.0025 31.3908 24.4925 29.1508 24.8025V27.9225H36.3508C36.6308 27.9225 36.8508 28.1425 36.8508 28.4225C36.8508 28.7025 36.6308 28.9225 36.3508 28.9225H29.1508V31.7525H37.0508C37.3308 31.7525 37.5508 31.9725 37.5508 32.2525C37.5508 32.5325 37.3308 32.7525 37.0508 32.7525H29.1508V34.8025C29.1508 36.9825 29.1508 37.1625 32.5808 37.1625H35.8008C36.8308 37.1625 37.3208 36.9025 37.3208 35.4425C37.3208 35.1625 37.5408 34.9425 37.8208 34.9425C38.1008 34.9425 38.3208 35.1625 38.3208 35.4425C38.3208 37.3025 37.5208 38.1625 35.8008 38.1625Z" fill="white"/>
</g>
<defs>
<clipPath id="clip0_2250_24406">
<rect width="40" height="40" fill="white" transform="translate(10 10.5)"/>
</clipPath>
</defs>
</svg>
