<svg width="38" height="39" viewBox="0 0 38 39" fill="none" xmlns="http://www.w3.org/2000/svg">
<rect y="0.514648" width="38" height="38" rx="19" fill="#E5EAF2"/>
<path d="M17.0001 11.7924C17.0975 11.9111 17.1571 12.0563 17.1714 12.2092C17.1856 12.3621 17.1538 12.5157 17.0801 12.6504C16.5016 13.7118 16.1997 14.9017 16.2021 16.1105C16.2021 20.1315 19.4801 23.3876 23.5202 23.3876C24.0482 23.3869 24.5592 23.3336 25.0532 23.2276C25.2043 23.1952 25.3616 23.208 25.5056 23.2641C25.6496 23.3203 25.7739 23.4175 25.8632 23.5436C25.9577 23.6748 26.0059 23.8338 26.0003 23.9954C25.9947 24.157 25.9356 24.3122 25.8322 24.4366C25.0478 25.4 24.0584 26.1762 22.936 26.7087C21.8135 27.2412 20.5865 27.5165 19.3441 27.5146C14.7341 27.5146 11 23.8006 11 19.2245C11 15.7805 13.114 12.8264 16.1241 11.5744C16.274 11.5107 16.4405 11.4975 16.5986 11.5368C16.7566 11.5762 16.8975 11.6659 17.0001 11.7924Z" fill="#03202F"/>
</svg>
