<svg width="38" height="39" viewBox="0 0 38 39" fill="none" xmlns="http://www.w3.org/2000/svg">
<rect y="0.792969" width="38" height="38" rx="19" fill="#D9CAB8"/>
<path d="M19 24.293C20.1935 24.293 21.3381 23.8189 22.182 22.9749C23.0259 22.131 23.5 20.9864 23.5 19.793C23.5 18.5995 23.0259 17.4549 22.182 16.611C21.3381 15.7671 20.1935 15.293 19 15.293C17.8065 15.293 16.6619 15.7671 15.818 16.611C14.9741 17.4549 14.5 18.5995 14.5 19.793C14.5 20.9864 14.9741 22.131 15.818 22.9749C16.6619 23.8189 17.8065 24.293 19 24.293ZM19 10.793C19.1492 10.793 19.2923 10.8522 19.3977 10.9577C19.5032 11.0632 19.5625 11.2063 19.5625 11.3555V13.6055C19.5625 13.7547 19.5032 13.8977 19.3977 14.0032C19.2923 14.1087 19.1492 14.168 19 14.168C18.8508 14.168 18.7077 14.1087 18.6023 14.0032C18.4968 13.8977 18.4375 13.7547 18.4375 13.6055V11.3555C18.4375 11.2063 18.4968 11.0632 18.6023 10.9577C18.7077 10.8522 18.8508 10.793 19 10.793ZM19 25.418C19.1492 25.418 19.2923 25.4772 19.3977 25.5827C19.5032 25.6882 19.5625 25.8313 19.5625 25.9805V28.2305C19.5625 28.3797 19.5032 28.5227 19.3977 28.6282C19.2923 28.7337 19.1492 28.793 19 28.793C18.8508 28.793 18.7077 28.7337 18.6023 28.6282C18.4968 28.5227 18.4375 28.3797 18.4375 28.2305V25.9805C18.4375 25.8313 18.4968 25.6882 18.6023 25.5827C18.7077 25.4772 18.8508 25.418 19 25.418ZM28 19.793C28 19.9422 27.9407 20.0852 27.8352 20.1907C27.7298 20.2962 27.5867 20.3555 27.4375 20.3555H25.1875C25.0383 20.3555 24.8952 20.2962 24.7898 20.1907C24.6843 20.0852 24.625 19.9422 24.625 19.793C24.625 19.6438 24.6843 19.5007 24.7898 19.3952C24.8952 19.2897 25.0383 19.2305 25.1875 19.2305H27.4375C27.5867 19.2305 27.7298 19.2897 27.8352 19.3952C27.9407 19.5007 28 19.6438 28 19.793ZM13.375 19.793C13.375 19.9422 13.3157 20.0852 13.2102 20.1907C13.1048 20.2962 12.9617 20.3555 12.8125 20.3555H10.5625C10.4133 20.3555 10.2702 20.2962 10.1648 20.1907C10.0593 20.0852 10 19.9422 10 19.793C10 19.6438 10.0593 19.5007 10.1648 19.3952C10.2702 19.2897 10.4133 19.2305 10.5625 19.2305H12.8125C12.9617 19.2305 13.1048 19.2897 13.2102 19.3952C13.3157 19.5007 13.375 19.6438 13.375 19.793ZM25.3641 13.4288C25.4696 13.5343 25.5288 13.6774 25.5288 13.8265C25.5288 13.9757 25.4696 14.1187 25.3641 14.2242L23.7734 15.8161C23.7211 15.8683 23.659 15.9097 23.5907 15.938C23.5224 15.9662 23.4492 15.9807 23.3753 15.9807C23.226 15.9806 23.0829 15.9212 22.9774 15.8155C22.9252 15.7632 22.8838 15.7012 22.8556 15.6329C22.8273 15.5646 22.8128 15.4914 22.8129 15.4174C22.813 15.2682 22.8724 15.1251 22.978 15.0196L24.5687 13.4288C24.6742 13.3234 24.8173 13.2642 24.9664 13.2642C25.1156 13.2642 25.2586 13.3234 25.3641 13.4288ZM15.022 23.771C15.1275 23.8765 15.1867 24.0195 15.1867 24.1687C15.1867 24.3178 15.1275 24.4609 15.022 24.5663L13.4312 26.1571C13.3252 26.2596 13.1831 26.3163 13.0356 26.315C12.8881 26.3137 12.747 26.2545 12.6427 26.1502C12.5384 26.0459 12.4793 25.9049 12.478 25.7574C12.4767 25.6099 12.5334 25.4678 12.6359 25.3617L14.2266 23.771C14.3321 23.6655 14.4752 23.6063 14.6243 23.6063C14.7735 23.6063 14.9165 23.6655 15.022 23.771ZM25.3641 26.1571C25.2586 26.2625 25.1156 26.3218 24.9664 26.3218C24.8173 26.3218 24.6742 26.2625 24.5687 26.1571L22.978 24.5663C22.8755 24.4603 22.8188 24.3182 22.8201 24.1707C22.8214 24.0232 22.8806 23.8821 22.9849 23.7778C23.0891 23.6735 23.2302 23.6144 23.3777 23.6131C23.5252 23.6118 23.6673 23.6685 23.7734 23.771L25.3641 25.3617C25.4696 25.4672 25.5288 25.6103 25.5288 25.7594C25.5288 25.9086 25.4696 26.0516 25.3641 26.1571ZM15.022 15.8161C14.9165 15.9215 14.7735 15.9808 14.6243 15.9808C14.4752 15.9808 14.3321 15.9215 14.2266 15.8161L12.6359 14.2242C12.5822 14.1723 12.5393 14.1103 12.5098 14.0416C12.4803 13.973 12.4648 13.8992 12.4642 13.8245C12.4635 13.7498 12.4778 13.6757 12.506 13.6066C12.5343 13.5375 12.5761 13.4747 12.6289 13.4219C12.6817 13.3691 12.7445 13.3273 12.8137 13.299C12.8828 13.2707 12.9568 13.2565 13.0315 13.2571C13.1062 13.2578 13.18 13.2733 13.2487 13.3028C13.3173 13.3323 13.3794 13.3751 13.4312 13.4288L15.022 15.0196C15.0744 15.0718 15.1159 15.1339 15.1443 15.2023C15.1727 15.2706 15.1873 15.3439 15.1873 15.4178C15.1873 15.4918 15.1727 15.5651 15.1443 15.6334C15.1159 15.7018 15.0744 15.7638 15.022 15.8161Z" fill="#273347"/>
</svg>
