<svg width="88" height="88" viewBox="0 0 88 88" fill="none" xmlns="http://www.w3.org/2000/svg">
<g filter="url(#filter0_bd_2009_9866)">
<rect x="4" width="80" height="80" rx="16" fill="url(#paint0_linear_2009_9866)" shape-rendering="crispEdges"/>
<rect x="4.5" y="0.5" width="79" height="79" rx="15.5" stroke="white" stroke-opacity="0.8" shape-rendering="crispEdges"/>
</g>
<g filter="url(#filter1_d_2009_9866)">
<path d="M55.9364 21.9927C59.5146 21.9927 62.3291 23.1491 64.38 25.4618C66.3437 27.6436 67.3255 30.5454 67.3255 34.1673C67.3255 37.6582 66.3982 40.4945 64.5437 42.6763C65.6128 44.0509 66.4746 45.2291 67.1291 46.2109L64.6419 48.3709C63.5728 46.8218 62.7109 45.6218 62.0564 44.7709C60.3109 45.7745 58.2709 46.2763 55.9364 46.2763C52.3582 46.2763 49.5437 45.12 47.4928 42.8073C45.5509 40.6036 44.58 37.7236 44.58 34.1673C44.58 30.5891 45.5509 27.6982 47.4928 25.4945C49.5 23.16 52.3146 21.9927 55.9364 21.9927ZM55.9364 25.3636C53.5364 25.3636 51.66 26.1818 50.3073 27.8182C49.0419 29.3673 48.4091 31.4836 48.4091 34.1673C48.4091 36.8291 49.0419 38.9345 50.3073 40.4836C51.6164 42.0982 53.4928 42.9054 55.9364 42.9054C57.4419 42.9054 58.7619 42.5891 59.8964 41.9563C58.7182 40.5163 57.5946 39.2291 56.5255 38.0945L58.7509 35.9345C59.9073 37.1563 61.0419 38.4218 62.1546 39.7309C63.0273 38.2473 63.4637 36.3927 63.4637 34.1673C63.4637 31.44 62.82 29.28 61.5328 27.6873C60.2455 26.1382 58.38 25.3636 55.9364 25.3636Z" fill="black"/>
<path d="M22.0072 22.4509H30.549C34.3235 22.4509 37.1926 23.4982 39.1563 25.5927C41.0326 27.5782 41.9708 30.4254 41.9708 34.1345C41.9708 37.8218 41.0326 40.6691 39.1563 42.6764C37.1926 44.7709 34.3235 45.8182 30.549 45.8182H22.0072V22.4509ZM25.8363 25.7236V42.5454H29.829C32.7308 42.5454 34.8581 41.8691 36.2108 40.5164C37.5199 39.1418 38.1744 37.0145 38.1744 34.1345C38.1744 31.1673 37.5199 29.0291 36.2108 27.72C34.8799 26.3891 32.7526 25.7236 29.829 25.7236H25.8363Z" fill="black"/>
<path d="M73.0923 33.9055C74.2268 33.9055 75.1596 34.2328 75.8905 34.8873C76.6105 35.5419 76.9705 36.3873 76.9705 37.4237C76.9705 38.4164 76.5887 39.3382 75.825 40.1892C75.3996 40.6473 74.5923 41.2746 73.4032 42.071C72.2141 42.8564 71.4887 43.5437 71.2268 44.1328H76.9868V45.8182H68.8378C68.8378 44.6182 69.225 43.5819 69.9996 42.7092C70.425 42.2182 71.3196 41.5037 72.6832 40.5655C73.3923 40.0746 73.9268 39.6382 74.2868 39.2564C74.7996 38.6782 75.0559 38.0619 75.0559 37.4073C75.0559 36.7746 74.8868 36.3001 74.5487 35.9837C74.2105 35.6782 73.7032 35.5255 73.0268 35.5255C72.3068 35.5255 71.7668 35.771 71.4068 36.2619C71.0468 36.7201 70.8505 37.4128 70.8178 38.3401H68.9032C68.925 37.031 69.3068 35.9782 70.0487 35.1819C70.8232 34.331 71.8378 33.9055 73.0923 33.9055Z" fill="#FF7A00"/>
<path d="M69.1758 54.571C70.0849 54.571 70.7685 54.8764 71.2267 55.4873C71.6412 56.0328 71.8594 56.8 71.8812 57.7891H67.4303C67.474 58.4291 67.6449 58.92 67.943 59.2619C68.2485 59.611 68.6703 59.7855 69.2085 59.7855C69.6667 59.7855 70.0412 59.6691 70.3321 59.4364C70.5649 59.2473 70.754 58.9528 70.8994 58.5528H71.7721C71.6412 59.091 71.3867 59.5346 71.0085 59.8837C70.5285 60.3055 69.9285 60.5164 69.2085 60.5164C68.4012 60.5164 67.754 60.251 67.2667 59.72C66.7721 59.1819 66.5249 58.4546 66.5249 57.5382C66.5249 56.6946 66.7612 56 67.234 55.4546C67.714 54.8655 68.3612 54.571 69.1758 54.571ZM69.1976 55.3019C68.6958 55.3019 68.2921 55.4655 67.9867 55.7928C67.6885 56.1128 67.5103 56.5528 67.4521 57.1128H70.9758C70.8667 55.9055 70.274 55.3019 69.1976 55.3019Z" fill="black"/>
<path d="M64.4797 54.7237H65.8761V55.4546H64.4797V59.0437C64.4797 59.2619 64.5198 59.411 64.5998 59.491C64.6798 59.5855 64.8179 59.6328 65.0143 59.6328H65.7343V60.3637H64.8834C64.4179 60.3637 64.087 60.2437 63.8907 60.0037C63.7088 59.7928 63.6179 59.4728 63.6179 59.0437V55.4546H62.4834V54.7237H63.6179V53.2619L64.4797 52.9019V54.7237Z" fill="black"/>
<path d="M59.1023 54.571C59.9532 54.571 60.6259 54.8619 61.1204 55.4437C61.6004 55.9964 61.8404 56.6982 61.8404 57.5491C61.8404 58.3855 61.6041 59.08 61.1313 59.6328C60.6223 60.2219 59.9459 60.5164 59.1023 60.5164C58.2586 60.5164 57.5859 60.2219 57.0841 59.6328C56.6041 59.0873 56.3641 58.3928 56.3641 57.5491C56.3641 56.6982 56.6041 55.9964 57.0841 55.4437C57.5786 54.8619 58.2513 54.571 59.1023 54.571ZM59.1023 55.3019C58.4986 55.3019 58.0332 55.531 57.7059 55.9891C57.4077 56.3964 57.2586 56.9164 57.2586 57.5491C57.2586 58.1746 57.4077 58.691 57.7059 59.0982C58.0332 59.5564 58.4986 59.7855 59.1023 59.7855C59.6913 59.7855 60.1604 59.5564 60.5095 59.0982C60.8077 58.6764 60.9568 58.16 60.9568 57.5491C60.9568 56.931 60.8077 56.411 60.5095 55.9891C60.1604 55.531 59.6913 55.3019 59.1023 55.3019Z" fill="black"/>
<path d="M50.4778 54.7237H51.3506V58.171C51.3506 58.7164 51.4633 59.1164 51.6888 59.371C51.9215 59.6401 52.2924 59.7746 52.8015 59.7746C53.1651 59.7746 53.4997 59.6291 53.8051 59.3382C54.1106 59.0328 54.296 58.6401 54.3615 58.1601V54.7237H55.2342V60.3637H54.3615V59.491C53.896 60.1746 53.2851 60.5164 52.5288 60.5164C51.1615 60.5164 50.4778 59.7491 50.4778 58.2146V54.7237Z" fill="black"/>
<path d="M45.6276 52.4219C46.7986 52.4219 47.7186 52.811 48.3876 53.5891C49.0276 54.3382 49.3476 55.3019 49.3476 56.4801C49.3476 57.6437 49.0276 58.6001 48.3876 59.3491C48.3586 59.3782 48.3404 59.4001 48.3331 59.4146C48.5804 59.7346 48.8786 60.1455 49.2276 60.6473L48.6386 61.1601C48.2822 60.651 47.984 60.2364 47.744 59.9164C47.1476 60.3164 46.4386 60.5164 45.6167 60.5164C44.4531 60.5164 43.5331 60.1273 42.8567 59.3491C42.2167 58.6146 41.8967 57.6582 41.8967 56.4801C41.8967 55.2946 42.2167 54.3346 42.8567 53.6001C43.5331 52.8146 44.4567 52.4219 45.6276 52.4219ZM45.6276 53.2182C44.7258 53.2182 44.0204 53.5273 43.5113 54.1455C43.0313 54.7346 42.7913 55.5128 42.7913 56.4801C42.7913 57.4401 43.0313 58.2146 43.5113 58.8037C44.0131 59.4146 44.7149 59.7201 45.6167 59.7201C46.264 59.7201 46.8058 59.5673 47.2422 59.2619C46.7913 58.6873 46.3549 58.1782 45.9331 57.7346L46.4676 57.2219C46.9695 57.7601 47.4131 58.2655 47.7986 58.7382C48.2349 58.1564 48.4531 57.4037 48.4531 56.4801C48.4531 55.4982 48.2095 54.7091 47.7222 54.1128C47.2204 53.5164 46.5222 53.2182 45.6276 53.2182Z" fill="black"/>
<path d="M38.4757 54.571C39.2757 54.571 39.8721 54.7819 40.2648 55.2037C40.5993 55.5819 40.7666 56.0946 40.7666 56.7419V60.3637H39.9484V59.4146C39.7375 59.7128 39.4503 59.9637 39.0866 60.1673C38.6648 60.4 38.1957 60.5164 37.6793 60.5164C37.1193 60.5164 36.6684 60.3746 36.3266 60.091C35.9775 59.7928 35.803 59.4146 35.803 58.9564C35.803 58.3091 36.0612 57.8255 36.5775 57.5055C37.043 57.1928 37.6975 57.0328 38.5412 57.0255L39.8939 57.0037V56.7091C39.8939 55.7637 39.403 55.291 38.4212 55.291C37.9993 55.291 37.6612 55.3746 37.4066 55.5419C37.1157 55.7164 36.9266 55.9855 36.8393 56.3491L35.9775 56.2837C36.1012 55.6873 36.3921 55.2473 36.8503 54.9637C37.2648 54.7019 37.8066 54.571 38.4757 54.571ZM39.8939 57.6582L38.5957 57.68C37.3303 57.7019 36.6975 58.12 36.6975 58.9346C36.6975 59.1964 36.803 59.411 37.0139 59.5782C37.2393 59.7455 37.523 59.8291 37.8648 59.8291C38.3957 59.8291 38.8684 59.6546 39.283 59.3055C39.6903 58.9637 39.8939 58.5746 39.8939 58.1382V57.6582Z" fill="black"/>
<path d="M32.5674 54.571C33.9711 54.571 34.6729 55.3455 34.6729 56.8946V60.3637H33.8001V56.96C33.8001 55.8619 33.3056 55.3128 32.3165 55.3128C31.9238 55.3128 31.5856 55.4546 31.302 55.7382C31.0038 56.0364 30.8365 56.4437 30.8001 56.96V60.3637H29.9274V54.7237H30.8001V55.5528C30.9965 55.2328 31.2474 54.9928 31.5529 54.8328C31.8583 54.6582 32.1965 54.571 32.5674 54.571Z" fill="black"/>
<path d="M24.8428 54.7237L26.5664 59.1746L28.2355 54.7237H29.1955L26.1082 62.5237H25.1591L26.13 60.2328L23.8937 54.7237H24.8428Z" fill="black"/>
<path d="M16.9222 52.5746H19.7149C20.9513 52.5746 21.8822 52.931 22.5076 53.6437C23.0894 54.3055 23.3803 55.2473 23.3803 56.4692C23.3803 57.6692 23.0676 58.611 22.4422 59.2946C21.7876 60.0073 20.8494 60.3637 19.6276 60.3637H16.9222V52.5746ZM17.8167 53.3492V59.5892H19.4749C20.4858 59.5892 21.2494 59.3201 21.7658 58.7819C22.2531 58.251 22.4967 57.4801 22.4967 56.4692C22.4967 55.4292 22.2713 54.6546 21.8203 54.1455C21.3403 53.6146 20.5913 53.3492 19.5731 53.3492H17.8167Z" fill="black"/>
</g>
<defs>
<filter id="filter0_bd_2009_9866" x="-6" y="-10" width="100" height="100" filterUnits="userSpaceOnUse" color-interpolation-filters="sRGB">
<feFlood flood-opacity="0" result="BackgroundImageFix"/>
<feGaussianBlur in="BackgroundImageFix" stdDeviation="5"/>
<feComposite in2="SourceAlpha" operator="in" result="effect1_backgroundBlur_2009_9866"/>
<feColorMatrix in="SourceAlpha" type="matrix" values="0 0 0 0 0 0 0 0 0 0 0 0 0 0 0 0 0 0 127 0" result="hardAlpha"/>
<feOffset dy="4"/>
<feGaussianBlur stdDeviation="2"/>
<feComposite in2="hardAlpha" operator="out"/>
<feColorMatrix type="matrix" values="0 0 0 0 0 0 0 0 0 0 0 0 0 0 0 0 0 0 0.07 0"/>
<feBlend mode="normal" in2="effect1_backgroundBlur_2009_9866" result="effect2_dropShadow_2009_9866"/>
<feBlend mode="normal" in="SourceGraphic" in2="effect2_dropShadow_2009_9866" result="shape"/>
</filter>
<filter id="filter1_d_2009_9866" x="14.9222" y="21.9927" width="64.0647" height="44.531" filterUnits="userSpaceOnUse" color-interpolation-filters="sRGB">
<feFlood flood-opacity="0" result="BackgroundImageFix"/>
<feColorMatrix in="SourceAlpha" type="matrix" values="0 0 0 0 0 0 0 0 0 0 0 0 0 0 0 0 0 0 127 0" result="hardAlpha"/>
<feOffset dy="2"/>
<feGaussianBlur stdDeviation="1"/>
<feComposite in2="hardAlpha" operator="out"/>
<feColorMatrix type="matrix" values="0 0 0 0 0 0 0 0 0 0 0 0 0 0 0 0 0 0 0.25 0"/>
<feBlend mode="normal" in2="BackgroundImageFix" result="effect1_dropShadow_2009_9866"/>
<feBlend mode="normal" in="SourceGraphic" in2="effect1_dropShadow_2009_9866" result="shape"/>
</filter>
<linearGradient id="paint0_linear_2009_9866" x1="4" y1="0" x2="90.1042" y2="7.22192" gradientUnits="userSpaceOnUse">
<stop stop-color="white"/>
<stop offset="1" stop-color="white" stop-opacity="0.9"/>
</linearGradient>
</defs>
</svg>
