<svg width="60" height="61" viewBox="0 0 60 61" fill="none" xmlns="http://www.w3.org/2000/svg">
<rect y="0.5" width="60" height="60" rx="16" fill="#DE6280"/>
<path d="M44.13 18.5V16.82C44.13 14.44 42.19 12.5 39.81 12.5H19.1C14.63 12.5 11 16.13 11 20.6V26.31C11 26.31 11.01 26.36 11.02 26.38V41.25C11.02 45.63 14.61 49.22 18.99 49.22H41.05C45.43 49.22 49.02 45.63 49.02 41.25V25.84C49.02 22.55 47 19.71 44.13 18.49V18.5ZM12 22.02V20.6C12 16.69 15.19 13.5 19.1 13.5H39.81C41.64 13.5 43.13 14.99 43.13 16.82V18.16C42.46 17.98 41.77 17.87 41.05 17.87H18.99C15.99 17.87 13.36 19.55 12 22.02ZM27.91 33.05H29.61C31.43 33.05 32.91 34.53 32.91 36.35C32.91 38.17 31.43 39.65 29.61 39.65H29.26V41.76C29.26 42.04 29.04 42.26 28.76 42.26C28.48 42.26 28.26 42.04 28.26 41.76V39.65H27.91C26.09 39.65 24.61 38.17 24.61 36.35C24.61 36.07 24.83 35.85 25.11 35.85C25.39 35.85 25.61 36.07 25.61 36.35C25.61 37.62 26.64 38.65 27.91 38.65H29.61C30.88 38.65 31.91 37.62 31.91 36.35C31.91 35.08 30.88 34.05 29.61 34.05H27.91C26.09 34.05 24.61 32.57 24.61 30.75C24.61 28.93 26.09 27.45 27.91 27.45H28.26V25.34C28.26 25.06 28.48 24.84 28.76 24.84C29.04 24.84 29.26 25.06 29.26 25.34V27.45H29.61C31.43 27.45 32.91 28.93 32.91 30.75C32.91 31.03 32.69 31.25 32.41 31.25C32.13 31.25 31.91 31.03 31.91 30.75C31.91 29.48 30.88 28.45 29.61 28.45H27.91C26.64 28.45 25.61 29.48 25.61 30.75C25.61 32.02 26.64 33.05 27.91 33.05ZM42.19 35.93C40.88 35.93 39.81 34.87 39.81 33.55C39.81 32.23 40.87 31.17 42.19 31.17C43.51 31.17 44.57 32.23 44.57 33.55C44.57 34.87 43.51 35.93 42.19 35.93ZM44.91 25.99C44.91 25.99 44.83 26 44.79 26C44.57 26 44.36 25.85 44.3 25.62C43.94 24.2 42.76 23.1 41.34 22.89C41.07 22.85 40.88 22.59 40.92 22.32C40.96 22.05 41.22 21.86 41.49 21.9C43.3 22.17 44.82 23.57 45.27 25.38C45.34 25.65 45.17 25.92 44.91 25.99Z" fill="white"/>
</svg>
