<svg width="44" height="44" viewBox="0 0 44 44" fill="none" xmlns="http://www.w3.org/2000/svg">
<rect width="44" height="44" rx="16" fill="#FFA800"/>
<path d="M24.7912 15H19.195C16.856 15 14.96 16.8961 14.96 19.235V24.8313C14.96 27.1702 16.856 29.0663 19.195 29.0663H24.7912C27.1301 29.0663 29.0262 27.1702 29.0262 24.8313V19.235C29.0262 16.8961 27.1301 15 24.7912 15Z" stroke="#273347" stroke-miterlimit="10"/>
<path d="M29.04 20.4175C29.04 20.4175 31.8312 20.4863 31.8312 17.6263" stroke="#273347" stroke-width="0.5" stroke-linecap="round" stroke-linejoin="round"/>
<path d="M31.8312 17.6125C32.4767 17.6125 33 17.0892 33 16.4437C33 15.7983 32.4767 15.275 31.8312 15.275C31.1857 15.275 30.6625 15.7983 30.6625 16.4437C30.6625 17.0892 31.1857 17.6125 31.8312 17.6125Z" stroke="#273347" stroke-width="0.5" stroke-linecap="round" stroke-linejoin="round"/>
<path d="M14.96 20.4175C14.96 20.4175 12.1688 20.4863 12.1688 17.6263" stroke="#273347" stroke-width="0.5" stroke-linecap="round" stroke-linejoin="round"/>
<path d="M12.1688 17.6125C12.8142 17.6125 13.3375 17.0892 13.3375 16.4437C13.3375 15.7983 12.8142 15.275 12.1688 15.275C11.5233 15.275 11 15.7983 11 16.4437C11 17.0892 11.5233 17.6125 12.1688 17.6125Z" stroke="#273347" stroke-width="0.5" stroke-linecap="round" stroke-linejoin="round"/>
<path d="M17.545 25.4225L20.1575 18.6438L22.77 25.3813" stroke="#273347" stroke-linecap="round" stroke-linejoin="round"/>
<path d="M18.1225 23.91H22.2063" stroke="#273347" stroke-linecap="round" stroke-linejoin="round"/>
<path d="M25.465 18.6438V25.4225" stroke="#273347" stroke-linecap="round" stroke-linejoin="round"/>
</svg>
