<svg width="38" height="38" viewBox="0 0 38 38" fill="none" xmlns="http://www.w3.org/2000/svg">
<rect width="38" height="38" rx="19" fill="#FFA800"/>
<path d="M18.375 10.2725C16.755 10.3886 15.1992 10.9533 13.8819 11.9034C12.5646 12.8535 11.5378 14.1515 10.9163 15.6521C10.2948 17.1527 10.1033 18.7966 10.3631 20.3999C10.623 22.0032 11.3239 23.5025 12.3875 24.73L18.375 18.7413V10.2725ZM19.625 10.2725V18.375H27.7275C27.5771 16.2758 26.6752 14.3011 25.187 12.813C23.6989 11.3248 21.7242 10.4229 19.625 10.2725ZM27.7275 19.625H19.2587L13.2713 25.6125C14.4988 26.6757 15.998 27.3764 17.6011 27.636C19.2041 27.8956 20.8478 27.704 22.3482 27.0826C23.8486 26.4612 25.1464 25.4345 26.0964 24.1174C27.0465 22.8003 27.6112 21.2448 27.7275 19.625ZM9 19C9 16.3478 10.0536 13.8043 11.9289 11.9289C13.8043 10.0536 16.3478 9 19 9C21.6522 9 24.1957 10.0536 26.0711 11.9289C27.9464 13.8043 29 16.3478 29 19C29 21.6522 27.9464 24.1957 26.0711 26.0711C24.1957 27.9464 21.6522 29 19 29C16.3478 29 13.8043 27.9464 11.9289 26.0711C10.0536 24.1957 9 21.6522 9 19Z" fill="#273347"/>
</svg>
